<svg width="942" height="603" viewBox="0 0 942 603" fill="none" xmlns="http://www.w3.org/2000/svg">
<g id="Background">
<g id="Backdrop">
<g id="Dark Backdrop">
<path id="Vector" fill-rule="evenodd" clip-rule="evenodd" d="M0.0869141 584.892L55.0604 84.4791L144.9 0.37793L253.638 34.0687L812.348 3.74383L835.908 276.615L916.759 313.774L941.366 602.685L0.0869141 584.892Z" fill="#1D182F"/>
</g>
<g id="Light Backdrop">
<g id="Back">
<path id="Vector_2" fill-rule="evenodd" clip-rule="evenodd" d="M870.8 84.4224L144.88 111.333L177.86 536.388L869.528 533.737L870.8 84.4224Z" fill="#2400A4"/>
</g>
<g id="Front">
<path id="Vector_3" fill-rule="evenodd" clip-rule="evenodd" d="M881.654 84.4224H144.88L194.645 541.395L881.654 543.013V84.4224Z" fill="#DCE3FD"/>
</g>
</g>
<g id="Border 2">
<path id="Vector_4" fill-rule="evenodd" clip-rule="evenodd" d="M798.599 65.8011V102.264L847.355 101.328L846.42 194.821L889.446 198.561L878.206 61.1265L798.599 65.8011Z" fill="#F47456"/>
</g>
<g id="Border 1">
<path id="Vector_5" fill-rule="evenodd" clip-rule="evenodd" d="M249.532 567.707V531.244L200.776 532.181L201.711 438.687L158.685 434.947L169.924 572.382L249.532 567.707Z" fill="#F47456"/>
</g>
<g id="Music">
<g id="Group">
<path id="Vector_6" d="M697.118 512.61C703.62 512.61 708.891 508.781 708.891 504.058C708.891 499.334 703.62 495.505 697.118 495.505C690.616 495.505 685.345 499.334 685.345 504.058C685.345 508.781 690.616 512.61 697.118 512.61Z" fill="#1D182F"/>
</g>
<g id="Group_2">
<path id="Vector_7" d="M727.223 505.8C733.725 505.8 738.996 501.971 738.996 497.248C738.996 492.525 733.725 488.696 727.223 488.696C720.721 488.696 715.45 492.525 715.45 497.248C715.45 501.971 720.721 505.8 727.223 505.8Z" fill="#1D182F"/>
</g>
<g id="Group_3">
<path id="Vector_8" fill-rule="evenodd" clip-rule="evenodd" d="M703.792 502.884L703.623 454.641L738.815 437.086V496.042H734.2L733.867 445.708L708.854 457.069V504.039L703.792 502.884Z" fill="#1D182F"/>
</g>
</g>
</g>
<g id="Note">
<g id="Group_4">
<g id="Group_5">
<path id="Vector_9" d="M247.382 301.433H297.995" stroke="#1D182F" stroke-miterlimit="1.5" stroke-linecap="round" stroke-linejoin="round"/>
</g>
<g id="Group_6">
<path id="Vector_10" d="M247.382 319.532H297.995" stroke="#1D182F" stroke-miterlimit="1.5" stroke-linecap="round" stroke-linejoin="round"/>
</g>
<g id="Group_7">
<path id="Vector_11" d="M247.382 313.618H297.995" stroke="#1D182F" stroke-miterlimit="1.5" stroke-linecap="round" stroke-linejoin="round"/>
</g>
<g id="Group_8">
<path id="Vector_12" d="M247.382 307.526H297.995" stroke="#1D182F" stroke-miterlimit="1.5" stroke-linecap="round" stroke-linejoin="round"/>
</g>
<g id="Group_9">
<path id="Vector_13" d="M247.382 327.954H297.995" stroke="#1D182F" stroke-miterlimit="1.5" stroke-linecap="round" stroke-linejoin="round"/>
</g>
<g id="Group_10">
<path id="Vector_14" d="M247.382 335.839H297.995" stroke="#1D182F" stroke-miterlimit="1.5" stroke-linecap="round" stroke-linejoin="round"/>
</g>
<g id="Group_11">
<path id="Vector_15" d="M247.382 350.175H297.995" stroke="#1D182F" stroke-miterlimit="1.5" stroke-linecap="round" stroke-linejoin="round"/>
</g>
<g id="Group_12">
<path id="Vector_16" d="M247.382 343.903H297.995" stroke="#1D182F" stroke-miterlimit="1.5" stroke-linecap="round" stroke-linejoin="round"/>
</g>
<g id="Group_13">
<path id="Vector_17" d="M247.382 356.268H297.995" stroke="#1D182F" stroke-miterlimit="1.5" stroke-linecap="round" stroke-linejoin="round"/>
</g>
<g id="Group_14">
<path id="Vector_18" d="M247.382 361.464H297.995" stroke="#1D182F" stroke-miterlimit="1.5" stroke-linecap="round" stroke-linejoin="round"/>
</g>
<g id="Group_15">
<path id="Vector_19" d="M247.382 379.026H254.924" stroke="#1D182F" stroke-miterlimit="1.5" stroke-linecap="round" stroke-linejoin="round"/>
</g>
<g id="Group_16">
<path id="Vector_20" d="M247.382 371.321H262.465" stroke="#1D182F" stroke-miterlimit="1.5" stroke-linecap="round" stroke-linejoin="round"/>
</g>
</g>
<g id="Group_17">
<path id="Vector_21" fill-rule="evenodd" clip-rule="evenodd" d="M223.369 208.539L233.989 400.523L310.782 397.254L329.571 193.017L223.369 208.539Z" stroke="#1D182F" stroke-miterlimit="1.5" stroke-linecap="round" stroke-linejoin="round"/>
</g>
<g id="Group_18">
<path id="Vector_22" fill-rule="evenodd" clip-rule="evenodd" d="M243.439 223.367L248.878 271.051L301.999 269.797L311.619 209.145L243.439 223.367Z" fill="#584696"/>
</g>
</g>
<g id="Code Screen">
<g id="Group_19">
<path id="Vector_23" fill-rule="evenodd" clip-rule="evenodd" d="M815.882 154.942C815.882 149.648 811.584 145.35 806.291 145.35H596.378C591.084 145.35 586.785 149.648 586.785 154.942V314.534C586.785 319.828 591.084 324.125 596.378 324.125H806.291C811.584 324.125 815.882 319.828 815.882 314.534V154.942Z" fill="#20135B"/>
</g>
<g id="Group_20">
<path id="Vector_24" fill-rule="evenodd" clip-rule="evenodd" d="M710.084 183.552C710.084 181.656 708.544 180.115 706.647 180.115H600.615C598.718 180.115 597.179 181.656 597.179 183.552C597.179 185.448 598.718 186.989 600.615 186.989H706.647C708.544 186.989 710.084 185.448 710.084 183.552Z" fill="#00A8B5"/>
</g>
<g id="Group_21">
<path id="Vector_25" fill-rule="evenodd" clip-rule="evenodd" d="M752.648 197.709C752.648 195.812 751.106 194.272 749.211 194.272H600.616C598.718 194.272 597.179 195.812 597.179 197.709C597.179 199.605 598.718 201.146 600.616 201.146H749.211C751.106 201.146 752.648 199.605 752.648 197.709Z" fill="#00A8B5"/>
</g>
<g id="Group_22">
<path id="Vector_26" fill-rule="evenodd" clip-rule="evenodd" d="M714.903 226.201C714.903 224.305 713.362 222.764 711.466 222.764H600.615C598.718 222.764 597.179 224.305 597.179 226.201C597.179 228.098 598.718 229.638 600.615 229.638H711.466C713.362 229.638 714.903 228.098 714.903 226.201Z" fill="#00A8B5"/>
</g>
<g id="Group_23">
<path id="Vector_27" fill-rule="evenodd" clip-rule="evenodd" d="M781.617 226.201C781.617 224.305 780.077 222.764 778.18 222.764H723.546C721.649 222.764 720.109 224.305 720.109 226.201C720.109 228.098 721.649 229.638 723.546 229.638H778.18C780.077 229.638 781.617 228.098 781.617 226.201Z" fill="#00A8B5"/>
</g>
<g id="Group_24">
<path id="Vector_28" fill-rule="evenodd" clip-rule="evenodd" d="M701.27 254.515C701.27 252.618 699.729 251.078 697.833 251.078H600.615C598.718 251.078 597.179 252.618 597.179 254.515C597.179 256.411 598.718 257.952 600.615 257.952H697.833C699.729 257.952 701.27 256.411 701.27 254.515Z" fill="#00A8B5"/>
</g>
<g id="Group_25">
<path id="Vector_29" fill-rule="evenodd" clip-rule="evenodd" d="M771.833 254.515C771.833 252.618 770.292 251.078 768.396 251.078H709.21C707.313 251.078 705.773 252.618 705.773 254.515C705.773 256.411 707.313 257.952 709.21 257.952H768.396C770.292 257.952 771.833 256.411 771.833 254.515Z" fill="#00A8B5"/>
</g>
<g id="Group_26">
<path id="Vector_30" fill-rule="evenodd" clip-rule="evenodd" d="M658.686 240.358C658.686 238.462 657.146 236.921 655.25 236.921H600.615C598.718 236.921 597.179 238.462 597.179 240.358C597.179 242.254 598.718 243.795 600.615 243.795H655.25C657.146 243.795 658.686 242.254 658.686 240.358Z" fill="#00A8B5"/>
</g>
<g id="Group_27">
<path id="Vector_31" fill-rule="evenodd" clip-rule="evenodd" d="M775.594 240.358C775.594 238.462 774.054 236.921 772.157 236.921H669.07C667.173 236.921 665.633 238.462 665.633 240.358C665.633 242.254 667.173 243.795 669.07 243.795H772.157C774.054 243.795 775.594 242.254 775.594 240.358Z" fill="#00A8B5"/>
</g>
<g id="Group_28">
<path id="Vector_32" fill-rule="evenodd" clip-rule="evenodd" d="M674.048 268.672C674.048 266.775 672.508 265.234 670.611 265.234H600.616C598.718 265.234 597.179 266.775 597.179 268.672C597.179 270.568 598.718 272.109 600.616 272.109H670.611C672.508 272.109 674.048 270.568 674.048 268.672Z" fill="#00A8B5"/>
</g>
<g id="Group_29">
<path id="Vector_33" fill-rule="evenodd" clip-rule="evenodd" d="M756.838 268.672C756.838 266.775 755.298 265.234 753.401 265.234H683.406C681.508 265.234 679.969 266.775 679.969 268.672C679.969 270.568 681.508 272.109 683.406 272.109H753.401C755.298 272.109 756.838 270.568 756.838 268.672Z" fill="#00A8B5"/>
</g>
<g id="Group_30">
<path id="Vector_34" fill-rule="evenodd" clip-rule="evenodd" d="M689.29 282.828C689.29 280.932 687.75 279.391 685.853 279.391H599.898C598.002 279.391 596.462 280.932 596.462 282.828C596.462 284.725 598.002 286.265 599.898 286.265H685.853C687.75 286.265 689.29 284.725 689.29 282.828Z" fill="#00A8B5"/>
</g>
<g id="Group_31">
<path id="Vector_35" fill-rule="evenodd" clip-rule="evenodd" d="M790 282.828C790 280.932 788.46 279.391 786.563 279.391H700.608C698.712 279.391 697.172 280.932 697.172 282.828C697.172 284.725 698.712 286.265 700.608 286.265H786.563C788.46 286.265 790 284.725 790 282.828Z" fill="#00A8B5"/>
</g>
<g id="Group_32">
<path id="Vector_36" fill-rule="evenodd" clip-rule="evenodd" d="M690.007 211.866C690.007 209.969 688.467 208.429 686.57 208.429H600.615C598.719 208.429 597.179 209.969 597.179 211.866C597.179 213.762 598.719 215.303 600.615 215.303H686.57C688.467 215.303 690.007 213.762 690.007 211.866Z" fill="#00A8B5"/>
</g>
<g id="Group_33">
<path id="Vector_37" fill-rule="evenodd" clip-rule="evenodd" d="M785.363 211.866C785.363 209.969 783.823 208.429 781.925 208.429H701.325C699.428 208.429 697.889 209.969 697.889 211.866C697.889 213.762 699.428 215.303 701.325 215.303H781.925C783.823 215.303 785.363 213.762 785.363 211.866Z" fill="#00A8B5"/>
</g>
<g id="Group_34">
<path id="Vector_38" fill-rule="evenodd" clip-rule="evenodd" d="M762.86 183.552C762.86 181.656 761.32 180.115 759.424 180.115H719.245C717.348 180.115 715.809 181.656 715.809 183.552C715.809 185.448 717.348 186.989 719.245 186.989H759.424C761.32 186.989 762.86 185.448 762.86 183.552Z" fill="#00A8B5"/>
</g>
<g id="Group_35">
<path id="Vector_39" d="M791.564 159.952C793.023 159.952 794.206 158.77 794.206 157.31C794.206 155.851 793.023 154.669 791.564 154.669C790.105 154.669 788.922 155.851 788.922 157.31C788.922 158.77 790.105 159.952 791.564 159.952Z" fill="#DFE14A"/>
</g>
<g id="Group_36">
<path id="Vector_40" d="M806.975 159.952C808.434 159.952 809.616 158.77 809.616 157.31C809.616 155.851 808.434 154.669 806.975 154.669C805.516 154.669 804.333 155.851 804.333 157.31C804.333 158.77 805.516 159.952 806.975 159.952Z" fill="#DFE14A"/>
</g>
<g id="Group_37">
<path id="Vector_41" d="M799.448 159.952C800.907 159.952 802.09 158.77 802.09 157.31C802.09 155.851 800.907 154.669 799.448 154.669C797.989 154.669 796.807 155.851 796.807 157.31C796.807 158.77 797.989 159.952 799.448 159.952Z" fill="#DFE14A"/>
</g>
</g>
</g>
</svg>
