<svg width="308" height="447" viewBox="0 0 308 447" fill="none" xmlns="http://www.w3.org/2000/svg">
<g id="Character Illustration" style="mix-blend-mode:luminosity" opacity="0.29">
<g id="character 6" clip-path="url(#clip0)">
<g id="Layer 2">
<g id="&#208;&#161;&#208;&#187;&#208;&#190;&#208;&#185; 1">
<g id="2">
<g id="COMPUTER">
<path id="Vector" d="M17.4608 206.057H157.072C157.557 206.057 158.022 206.25 158.365 206.592C158.708 206.935 158.901 207.4 158.901 207.885V218.636C158.901 219.121 158.708 219.586 158.365 219.929C158.022 220.272 157.557 220.464 157.072 220.464H84.4355V246.365" stroke="#F95353" stroke-width="5" stroke-miterlimit="10"/>
<path id="Vector_2" d="M33.9356 12.5829L26.9877 63.4395C25.2423 76.1676 27.2095 89.1287 32.6532 100.767L42.8089 122.396C49.5567 136.767 61.2056 147.993 75.4693 153.873L106.133 166.513L33.9356 12.5829Z" fill="#FCECC9" stroke="#F95353" stroke-width="5" stroke-miterlimit="10"/>
<path id="Vector_3" d="M57.0762 206.107H15.4318C5.96908 206.107 -0.968078 196.826 1.33955 187.242L20.6293 122.014C22.4154 114.582 28.8239 109.374 36.1682 109.374" stroke="#F95353" stroke-width="5" stroke-miterlimit="10"/>
<path id="Vector_4" d="M108.78 169.383C108.384 169.38 107.997 169.263 107.666 169.048C107.334 168.832 107.071 168.526 106.908 168.165L33.3926 11.3586C32.7139 9.91286 33.7248 8.228 35.2644 8.228C35.6624 8.2292 36.0517 8.34454 36.3861 8.56031C36.7204 8.77608 36.9857 9.08322 37.1506 9.44524L110.652 166.252C111.33 167.698 110.319 169.383 108.78 169.383Z" fill="#FCECC9" stroke="#F95353" stroke-width="5" stroke-miterlimit="10"/>
<path id="Vector_5" d="M62.8917 205.19C65.8608 205.19 68.2678 202.784 68.2678 199.817C68.2678 196.85 65.8608 194.445 62.8917 194.445C59.9225 194.445 57.5156 196.85 57.5156 199.817C57.5156 202.784 59.9225 205.19 62.8917 205.19Z" stroke="#F95353" stroke-width="5" stroke-miterlimit="10"/>
<path id="Vector_6" d="M57.5334 200.538C57.437 197.261 59.5982 194.541 62.8917 194.445L63.4132 194.427C64.8111 194.387 66.2084 194.525 67.5713 194.838L111.07 204.897" stroke="#F95353" stroke-width="5" stroke-miterlimit="10"/>
</g>
<g id="CHAIR">
<path id="Vector_7" d="M307.135 151.924L272.603 279.074C270.853 285.53 267.024 291.23 261.709 295.294C256.393 299.359 249.887 301.562 243.194 301.563H126.226" stroke="#F95353" stroke-width="5" stroke-miterlimit="10"/>
<path id="Vector_8" d="M135.682 301.548L229.966 444.484" stroke="#F95353" stroke-width="5" stroke-miterlimit="10" stroke-linecap="round"/>
<path id="Vector_9" d="M238.896 301.548L136.039 445.912" stroke="#F95353" stroke-width="5" stroke-miterlimit="10" stroke-linecap="round"/>
</g>
<g id="MAN">
<g id="LEG">
<path id="LEG_2" d="M137.232 395.705C137.232 395.705 132.328 403.201 123.812 402.151L118.053 393.916C123.993 392.64 129.806 390.831 135.421 388.512C136.007 391.25 136.618 393.759 137.232 395.705Z" fill="#682A14"/>
<path id="PANTS" d="M258.625 264.956C255.175 272.677 243.679 292.739 217.238 293.57C184.46 294.602 124.154 291.511 124.154 291.511C124.154 291.511 137.947 345.969 138.243 387.237C138.243 387.237 127.373 392.749 111.237 395.169C111.237 395.169 53.3682 287.009 64.8599 260.565C73.4117 240.893 138.411 233.243 167.792 230.773C180.002 237.848 220.628 260.019 258.625 264.956Z" fill="#52509D"/>
<g id="SHOE">
<path id="Vector_10" d="M137.232 395.705C137.232 395.705 143.191 402.251 149.767 407.449C153.932 410.74 152.296 417.087 148.749 422.42C143.415 430.417 137.495 438.009 131.038 445.133C131.038 445.133 121.811 446.108 103.854 445.372C103.854 445.372 103.182 439.004 109.53 436.127C123.997 429.57 127.255 412.211 123.819 402.169C123.812 402.151 131.038 403.44 137.232 395.705Z" fill="#3F4D79"/>
<path id="Vector_11" d="M152.6 409.308C154.329 412.974 151.757 418.486 149.106 422.42C149.106 422.42 139.254 436.145 131.752 445.472L103.497 445.712" stroke="#292243" stroke-width="7" stroke-miterlimit="10" stroke-linecap="round"/>
<path id="Vector_12" d="M121.983 431.33C121.983 431.33 115.463 427.067 120.197 424.462" stroke="#292243" stroke-width="5" stroke-miterlimit="10" stroke-linecap="round"/>
<path id="Vector_13" d="M125.555 427.403C125.555 427.403 117.607 423.141 122.34 420.535" stroke="#292243" stroke-width="5" stroke-miterlimit="10" stroke-linecap="round"/>
</g>
</g>
<g id="HEAD">
<path id="HOOD" d="M221.968 85.2107C221.968 85.2107 251.903 76.9684 254.021 52.4915C254.382 48.3471 221.968 85.2107 221.968 85.2107Z" fill="#6562CF"/>
<g id="NECK">
<path id="Vector_14" d="M222.329 37.3705C222.329 37.3705 235.249 64.3677 247.137 74.4447C247.137 74.4447 228.158 87.0562 212.226 87.0491C212.226 87.0491 201.796 68.694 197.473 61.6726L222.329 37.3705Z" fill="#682A14"/>
<path id="Vector_15" d="M207.243 78.3356C203.946 72.5992 199.813 65.4849 197.473 61.6726L216.384 43.1926L217.681 45.7734C219.06 58.1458 215.606 71.6461 207.243 78.3356Z" fill="#491E0E"/>
</g>
<path id="HEAD_2" d="M218.181 42.7678C218.181 42.7678 218.124 53.1197 214.184 58.849C209.226 66.0632 196.605 73.8414 187 72.4136C177.394 70.9857 169.017 22.3709 176.222 19.4938C183.428 16.6167 203.557 13.9751 209.558 22.8457C215.559 31.7162 218.181 42.7678 218.181 42.7678Z" fill="#682A14"/>
<g id="HAIR">
<path id="Vector_16" d="M228.262 48.7683C228.262 48.7683 224.079 49.4394 217.999 46.6516C218.188 44.3813 218.274 39.7193 215.924 38.3771C213.359 36.9136 211.894 41.0437 211.441 42.6072C210.893 42.1836 210.339 41.7278 209.779 41.24C199.777 32.5551 202.382 24.0522 202.382 24.0522C202.382 24.0522 187.5 32.7978 173.322 32.2195C161.555 31.7412 155.793 15.2852 165.713 10.3805C165.713 10.3805 164.999 14.889 173.658 12.7293C182.317 10.5697 180.634 1.78484 192.769 0.239185C207.722 -1.64915 210.812 8.24944 210.812 8.24944C210.812 8.24944 217.974 4.48348 225.347 11.3336C233.202 18.6335 223.054 39.009 228.262 48.7683Z" fill="#1F1313"/>
<path id="Vector_17" d="M203.91 22.4673C203.91 22.4673 190 33.5545 174.883 35.5214C160.662 37.3705 154.432 19.019 164.095 12.3652" stroke="#1F1313" stroke-width="4" stroke-miterlimit="10"/>
<path id="Vector_18" d="M209.526 8.98836C209.526 8.98836 214.388 2.07755 223.593 6.13265" stroke="#1F1313" stroke-width="4" stroke-miterlimit="10"/>
</g>
</g>
<g id="HOODY">
<path id="Vector_19" d="M261.769 265.327C272.914 254.419 287.11 185.621 283.402 141.515C283.17 136.493 282.434 131.507 281.205 126.633C280.573 123.763 279.727 120.944 278.672 118.201C275.457 109.991 268.106 101.424 257.882 95.5734C247.462 88.1164 233.867 82.9583 215.849 85.9711C189.029 90.4545 182.802 117.209 181.359 129.389L181.338 129.367L174.061 170.247L120.964 172.249V189.605C120.964 189.605 164.534 216.163 195.398 208.467L195.669 208.395C181.023 222.709 164.12 228.599 164.12 228.599C164.12 228.599 215.549 260.483 261.769 265.327Z" fill="#3F4D79"/>
<path id="Vector_20" d="M221.475 152.552C221.475 152.552 211.308 203.723 192.408 210.251" stroke="#28314D" stroke-width="5" stroke-miterlimit="10" stroke-linecap="round"/>
<path id="Vector_21" d="M221.968 85.2108C230.252 84.1399 252.203 70.1933 254.003 51.8347C254.003 51.8347 287.006 85.2108 274.918 111.879C274.918 111.879 268.188 99.3858 253.635 91.7932C236.217 82.7156 221.968 85.2108 221.968 85.2108Z" fill="#3F4D79"/>
<path id="Vector_22" d="M277.837 113.325C277.837 113.325 267.834 100.039 253.635 91.7931C233.756 80.2454 209.301 86.2959 209.301 86.2959" stroke="#28314D" stroke-width="5" stroke-miterlimit="10" stroke-linecap="round"/>
</g>
<g id="ARM">
<path id="Vector_23" d="M121.136 183.436C121.136 183.436 115.86 191.771 110.244 190.576C104.629 189.38 99.4028 188.559 96.5558 190.022C93.0372 191.832 89.5436 195.827 87.2467 195.752C84.4661 195.679 81.7254 195.073 79.1736 193.967C80.619 191.023 82.2118 188.154 83.946 185.371C81.9992 186.603 79.4165 189.13 77.9877 190.087C75.7015 191.622 74.1011 189.437 74.1011 189.437C74.1011 189.437 78.052 183.829 79.7809 182.369C81.442 180.966 87.4361 176.615 90.0509 176.229C93.1908 175.483 108.683 173.216 121.172 172.363L121.136 183.436Z" fill="#682A14"/>
<path id="Vector_24" d="M82.0885 194.045C82.0885 194.045 89.0935 183.793 91.0404 183.072C94.4697 181.805 98.942 180.131 98.942 180.131" stroke="#491E0E" stroke-width="4" stroke-miterlimit="10" stroke-linecap="round"/>
<path id="Vector_25" d="M85.4999 194.973C85.4999 194.973 91.8298 186.406 93.7731 185.692C97.2024 184.425 101.678 182.747 101.678 182.747" stroke="#491E0E" stroke-width="4" stroke-miterlimit="10" stroke-linecap="round"/>
</g>
</g>
</g>
</g>
</g>
</g>
</g>
<defs>
<clipPath id="clip0">
<rect width="308" height="446.961" fill="white"/>
</clipPath>
</defs>
</svg>
