<svg width="512" height="743" viewBox="0 0 512 743" fill="none" xmlns="http://www.w3.org/2000/svg">
<g id="Character Illustration">
<g id="character 6" clip-path="url(#clip0)">
<g id="Layer 2">
<g id="&#208;&#161;&#208;&#187;&#208;&#190;&#208;&#185; 1">
<g id="2">
<g id="COMPUTER">
<path id="Vector" d="M29.0258 342.536H261.107C261.913 342.536 262.687 342.857 263.257 343.426C263.827 343.996 264.147 344.769 264.147 345.575V363.448C264.147 364.253 263.827 365.026 263.257 365.596C262.687 366.166 261.913 366.486 261.107 366.486H140.36V409.542" stroke="#F95353" stroke-width="5" stroke-miterlimit="10"/>
<path id="Vector_2" d="M56.4125 20.9171L44.8628 105.458C41.9613 126.616 45.2314 148.162 54.2808 167.509L71.1629 203.463C82.3801 227.353 101.744 246.015 125.456 255.788L176.429 276.8L56.4125 20.9171Z" fill="#FCECC9" stroke="#F95353" stroke-width="5" stroke-miterlimit="10"/>
<path id="Vector_3" d="M94.8799 342.62H25.6529C9.9227 342.62 -1.60921 327.191 2.22684 311.259L34.2929 202.828C37.262 190.473 47.915 181.816 60.1239 181.816" stroke="#F95353" stroke-width="5" stroke-miterlimit="10"/>
<path id="Vector_4" d="M180.829 281.571C180.171 281.566 179.528 281.373 178.977 281.014C178.425 280.656 177.988 280.147 177.717 279.548L55.5099 18.8818C54.3816 16.4785 56.0621 13.6777 58.6215 13.6777C59.2831 13.6797 59.9302 13.8714 60.486 14.2301C61.0418 14.5888 61.4829 15.0994 61.7568 15.7012L183.94 276.367C185.069 278.77 183.388 281.571 180.829 281.571Z" fill="#FCECC9" stroke="#F95353" stroke-width="5" stroke-miterlimit="10"/>
<path id="Vector_5" d="M104.547 341.095C109.483 341.095 113.484 337.096 113.484 332.164C113.484 327.232 109.483 323.233 104.547 323.233C99.6116 323.233 95.6104 327.232 95.6104 332.164C95.6104 337.096 99.6116 341.095 104.547 341.095Z" stroke="#F95353" stroke-width="5" stroke-miterlimit="10"/>
<path id="Vector_6" d="M95.64 333.363C95.4797 327.915 99.0723 323.394 104.547 323.233L105.414 323.204C107.738 323.136 110.061 323.366 112.326 323.886L184.635 340.608" stroke="#F95353" stroke-width="5" stroke-miterlimit="10"/>
</g>
<g id="CHAIR">
<path id="Vector_7" d="M510.563 252.548L453.159 463.915C450.249 474.647 443.885 484.122 435.049 490.879C426.213 497.636 415.396 501.297 404.27 501.299H209.831" stroke="#F95353" stroke-width="5" stroke-miterlimit="10"/>
<path id="Vector_8" d="M225.549 501.275L382.281 738.882" stroke="#F95353" stroke-width="5" stroke-miterlimit="10" stroke-linecap="round"/>
<path id="Vector_9" d="M397.126 501.275L226.143 741.255" stroke="#F95353" stroke-width="5" stroke-miterlimit="10" stroke-linecap="round"/>
</g>
<g id="MAN">
<g id="LEG">
<path id="LEG_2" d="M228.126 657.795C228.126 657.795 219.973 670.256 205.817 668.511L196.244 654.822C206.119 652.701 215.782 649.694 225.116 645.838C226.09 650.389 227.105 654.561 228.126 657.795Z" fill="#682A14"/>
<path id="PANTS" d="M429.923 440.446C424.187 453.282 405.078 486.63 361.123 488.013C306.635 489.728 206.387 484.589 206.387 484.589C206.387 484.589 229.314 575.117 229.807 643.719C229.807 643.719 211.737 652.881 184.914 656.905C184.914 656.905 88.7161 477.106 107.819 433.148C122.035 400.446 230.086 387.729 278.927 383.623C299.224 395.384 366.759 432.24 429.923 440.446Z" fill="#52509D"/>
<g id="SHOE">
<path id="Vector_10" d="M228.126 657.795C228.126 657.795 238.031 668.677 248.963 677.317C255.887 682.788 253.168 693.339 247.271 702.204C238.404 715.499 228.563 728.12 217.83 739.962C217.83 739.962 202.491 741.582 172.64 740.359C172.64 740.359 171.524 729.773 182.076 724.991C206.126 714.09 211.541 685.233 205.829 668.541C205.817 668.511 217.83 670.653 228.126 657.795Z" fill="#3F4D79"/>
<path id="Vector_11" d="M253.672 680.409C256.546 686.503 252.271 695.665 247.865 702.204C247.865 702.204 231.487 725.02 219.017 740.525L172.046 740.923" stroke="#292243" stroke-width="7" stroke-miterlimit="10" stroke-linecap="round"/>
<path id="Vector_12" d="M202.776 717.015C202.776 717.015 191.939 709.93 199.807 705.598" stroke="#292243" stroke-width="5" stroke-miterlimit="10" stroke-linecap="round"/>
<path id="Vector_13" d="M208.714 710.488C208.714 710.488 195.502 703.403 203.37 699.071" stroke="#292243" stroke-width="5" stroke-miterlimit="10" stroke-linecap="round"/>
</g>
</g>
<g id="HEAD">
<path id="HOOD" d="M368.985 141.649C368.985 141.649 418.747 127.947 422.268 87.2585C422.868 80.3692 368.985 141.649 368.985 141.649Z" fill="#6562CF"/>
<g id="NECK">
<path id="Vector_14" d="M369.585 62.1224C369.585 62.1224 391.064 107.001 410.826 123.752C410.826 123.752 379.276 144.717 352.792 144.705C352.792 144.705 335.453 114.193 328.267 102.521L369.585 62.1224Z" fill="#682A14"/>
<path id="Vector_15" d="M344.508 130.22C339.027 120.684 332.157 108.858 328.267 102.521L359.704 71.8006L361.86 76.0909C364.152 96.6579 358.41 119.1 344.508 130.22Z" fill="#491E0E"/>
</g>
<path id="HEAD_2" d="M362.691 71.0945C362.691 71.0945 362.596 88.3029 356.046 97.8269C347.804 109.819 326.824 122.749 310.857 120.376C294.889 118.002 280.964 37.188 292.941 32.4052C304.919 27.6224 338.38 23.2313 348.356 37.9772C358.332 52.723 362.691 71.0945 362.691 71.0945Z" fill="#682A14"/>
<g id="HAIR">
<path id="Vector_16" d="M379.448 81.0694C379.448 81.0694 372.495 82.185 362.388 77.5506C362.703 73.7766 362.845 66.0269 358.938 63.7957C354.674 61.3628 352.24 68.2284 351.486 70.8274C350.575 70.1233 349.655 69.3657 348.724 68.5547C332.098 54.1175 336.426 39.9828 336.426 39.9828C336.426 39.9828 311.688 54.521 288.12 53.5597C268.559 52.7645 258.981 25.4091 275.471 17.2559C275.471 17.2559 274.284 24.7504 288.678 21.1604C303.072 17.5704 300.275 2.96696 320.447 0.397564C345.304 -2.74149 350.441 13.7133 350.441 13.7133C350.441 13.7133 362.347 7.45301 374.603 18.8402C387.661 30.9751 370.791 64.846 379.448 81.0694Z" fill="#1F1313"/>
<path id="Vector_17" d="M338.968 37.3482C338.968 37.3482 315.845 55.779 290.715 59.0486C267.075 62.1224 256.719 31.616 272.781 20.5551" stroke="#1F1313" stroke-width="4" stroke-miterlimit="10"/>
<path id="Vector_18" d="M348.303 14.9416C348.303 14.9416 356.385 3.45355 371.687 10.1945" stroke="#1F1313" stroke-width="4" stroke-miterlimit="10"/>
</g>
</g>
<g id="HOODY">
<path id="Vector_19" d="M435.148 441.064C453.676 422.929 477.274 308.565 471.11 235.245C470.724 226.897 469.501 218.61 467.458 210.506C466.408 205.736 465 201.051 463.248 196.49C457.903 182.842 445.683 168.601 428.688 158.875C411.366 146.479 388.765 137.905 358.813 142.913C314.23 150.366 303.879 194.841 301.48 215.087L301.445 215.052L289.349 283.007L201.084 286.336V315.187C201.084 315.187 273.512 359.335 324.817 346.542L325.269 346.423C300.922 370.218 272.823 380.009 272.823 380.009C272.823 380.009 358.315 433.011 435.148 441.064Z" fill="#3F4D79"/>
<path id="Vector_20" d="M368.166 253.593C368.166 253.593 351.266 338.656 319.847 349.509" stroke="#28314D" stroke-width="5" stroke-miterlimit="10" stroke-linecap="round"/>
<path id="Vector_21" d="M368.985 141.649C382.756 139.869 419.246 116.685 422.239 86.1667C422.239 86.1667 477.102 141.649 457.007 185.981C457.007 185.981 445.819 165.213 421.627 152.591C392.673 137.501 368.985 141.649 368.985 141.649Z" fill="#3F4D79"/>
<path id="Vector_22" d="M461.858 188.385C461.858 188.385 445.231 166.299 421.627 152.591C388.581 133.395 347.929 143.453 347.929 143.453" stroke="#28314D" stroke-width="5" stroke-miterlimit="10" stroke-linecap="round"/>
</g>
<g id="ARM">
<path id="Vector_23" d="M201.369 304.933C201.369 304.933 192.598 318.789 183.263 316.801C173.929 314.813 165.241 313.448 160.508 315.881C154.659 318.89 148.852 325.53 145.034 325.405C140.411 325.285 135.855 324.277 131.613 322.438C134.016 317.545 136.664 312.776 139.547 308.149C136.31 310.197 132.017 314.398 129.642 315.988C125.841 318.54 123.181 314.908 123.181 314.908C123.181 314.908 129.749 305.586 132.623 303.159C135.384 300.827 145.348 293.593 149.695 292.952C154.915 291.712 180.668 287.944 201.428 286.526L201.369 304.933Z" fill="#682A14"/>
<path id="Vector_24" d="M136.459 322.569C136.459 322.569 148.104 305.526 151.34 304.328C157.041 302.221 164.475 299.438 164.475 299.438" stroke="#491E0E" stroke-width="4" stroke-miterlimit="10" stroke-linecap="round"/>
<path id="Vector_25" d="M142.13 324.112C142.13 324.112 152.652 309.87 155.883 308.683C161.583 306.577 169.024 303.788 169.024 303.788" stroke="#491E0E" stroke-width="4" stroke-miterlimit="10" stroke-linecap="round"/>
</g>
</g>
</g>
</g>
</g>
</g>
</g>
<defs>
<clipPath id="clip0">
<rect width="512" height="743" fill="white"/>
</clipPath>
</defs>
</svg>
