<svg width="733" height="733" viewBox="0 0 733 733" fill="none" xmlns="http://www.w3.org/2000/svg">
<g id="Me">
<rect id="Rectangle 13" y="366.281" width="518" height="518" rx="51" transform="rotate(-45 0 366.281)" fill="#1D182F"/>
<g id="Group 23">
<circle id="Ellipse 3" cx="366" cy="354" r="182.5" stroke="#F3F6FF" stroke-width="5"/>
<circle id="Ellipse 4" cx="366" cy="354" r="167.5" stroke="#F3F6FF" stroke-width="5"/>
<circle id="Ellipse 5" cx="366" cy="354" r="152.5" stroke="#F3F6FF" stroke-width="5"/>
<circle id="Ellipse 6" cx="366" cy="354" r="137.5" stroke="#F3F6FF" stroke-width="5"/>
<circle id="Ellipse 7" cx="366" cy="354" r="122.5" stroke="#F3F6FF" stroke-width="5"/>
</g>
<g id="Me_2">
<g id="Group">
<g id="Group_2">
<path id="Vector" fill-rule="evenodd" clip-rule="evenodd" d="M511.1 489.083C511.1 453.321 482.067 424.289 446.306 424.289H286.431C250.67 424.289 221.637 453.321 221.637 489.083V618.674C221.637 654.434 250.67 683.469 286.431 683.469H446.306C482.067 683.469 511.1 654.434 511.1 618.674V489.083Z" fill="#4B0704"/>
</g>
<g id="Group_3">
<g id="Group_4">
<path id="Vector_2" fill-rule="evenodd" clip-rule="evenodd" d="M291.937 295.545C291.695 291.424 291.584 287.692 291.584 284.54C291.584 244.074 324.437 211.221 364.902 211.221C405.368 211.221 438.221 244.074 438.221 284.54C438.221 287.601 438.137 291.274 437.947 295.36C438.038 295.358 438.131 295.357 438.221 295.357C447.556 295.357 455.135 302.936 455.135 312.272C455.135 321.607 447.556 329.186 438.221 329.186C436.935 329.186 435.682 329.043 434.476 328.769C432.346 341.414 429.149 353.583 424.495 361.791C419.852 369.98 413.967 377.031 407.315 382.72V429.217C379.813 453.367 351.509 452.489 322.49 429.217V380.154C316.828 374.998 311.734 368.93 307.528 362.144C302.353 353.798 298.672 341.683 296.163 329.102C295.602 329.157 295.036 329.186 294.461 329.186C285.126 329.186 277.547 321.607 277.547 312.272C277.547 303.794 283.796 296.764 291.937 295.545Z" fill="#953B20"/>
</g>
<g id="Eyes">
<g id="Group_5">
<path id="Vector_3" fill-rule="evenodd" clip-rule="evenodd" d="M331.665 291.332C331.686 288.159 334.268 285.589 337.446 285.589C340.636 285.589 343.227 288.179 343.227 291.369V302.065C343.227 305.256 340.636 307.845 337.446 307.845C334.255 307.845 331.665 305.256 331.665 302.065V291.369L331.665 291.332Z" fill="#19090C"/>
</g>
<g id="Group_6">
<path id="Vector_4" fill-rule="evenodd" clip-rule="evenodd" d="M389.367 291.332C389.388 288.159 391.97 285.589 395.148 285.589C398.339 285.589 400.929 288.179 400.929 291.369V302.065C400.929 305.256 398.339 307.845 395.148 307.845C391.957 307.845 389.367 305.256 389.367 302.065V291.369L389.367 291.332Z" fill="#19090C"/>
</g>
</g>
<g id="Group_7">
<path id="Vector_5" fill-rule="evenodd" clip-rule="evenodd" d="M293.827 298.973C293.819 298.974 293.812 298.974 293.805 298.976C293.788 298.978 279.953 300.254 282.067 313.887C282.067 313.887 284.793 317.883 285.704 309.804C286.613 301.726 289.575 304.58 294.227 301.304C298.698 298.154 294.187 298.909 293.827 298.973Z" fill="#762209"/>
</g>
<g id="Group_8">
<path id="Vector_6" fill-rule="evenodd" clip-rule="evenodd" d="M439.413 298.798C439.413 298.798 453.267 300.067 451.151 313.709C451.151 313.709 448.425 317.705 447.514 309.626C446.605 301.548 443.643 304.402 438.991 301.126C434.337 297.847 439.413 298.798 439.413 298.798Z" fill="#762209"/>
</g>
<g id="Group_9">
<path id="Vector_7" fill-rule="evenodd" clip-rule="evenodd" d="M291.517 294.15C291.73 294.97 291.88 295.805 291.963 296.648C292.948 306.649 294.251 317.673 295.889 327.645C295.946 327.991 296.227 328.257 296.574 328.295C296.922 328.333 297.254 328.136 297.384 327.811C303.177 312.467 307.609 285.21 311.892 256.651C311.892 256.651 310.725 231.867 293.599 242.259C291.942 243.265 277.455 240.646 291.517 294.15Z" fill="#00121E"/>
</g>
<g id="Group_10">
<path id="Vector_8" fill-rule="evenodd" clip-rule="evenodd" d="M359.25 316.613V300.411C359.25 296.581 362.358 293.473 366.188 293.473C370.017 293.473 373.125 296.581 373.125 300.411V316.622C373.688 316.48 374.278 316.406 374.884 316.406C378.874 316.406 382.113 319.646 382.113 323.634C382.113 326.346 380.616 328.71 378.406 329.947C378.288 330.008 378.147 330.003 378.034 329.934C377.92 329.864 377.852 329.742 377.852 329.608C377.846 329.602 377.846 329.595 377.846 329.59C377.846 327.955 376.519 326.627 374.884 326.627C373.927 326.627 373.088 327.261 372.827 328.18C372.644 328.861 372.345 329.495 371.961 330.07C371.972 330.135 371.985 330.199 371.999 330.262C371.956 330.243 371.912 330.224 371.869 330.203C370.614 331.991 368.536 333.162 366.188 333.162C363.845 333.162 361.772 331.998 360.516 330.218C360.483 330.234 360.449 330.248 360.414 330.262C360.427 330.215 360.437 330.165 360.445 330.116C360.042 329.522 359.728 328.861 359.523 328.156C359.274 327.263 358.461 326.645 357.534 326.643C357.532 326.627 357.531 326.627 357.531 326.627C355.896 326.627 354.568 327.955 354.568 329.59C354.568 329.729 354.496 329.858 354.377 329.93C354.257 330.003 354.109 330.006 353.985 329.941C351.789 328.696 350.302 326.338 350.302 323.634C350.302 319.646 353.541 316.406 357.531 316.406C358.123 316.406 358.699 316.477 359.25 316.613Z" fill="#7A3824"/>
</g>
<g id="Group_11">
<path id="Vector_9" fill-rule="evenodd" clip-rule="evenodd" d="M363.972 300.129C363.972 299.522 363.479 299.028 362.871 299.028C362.264 299.028 361.771 299.522 361.771 300.129V312.091C361.771 312.699 362.264 313.192 362.871 313.192C363.479 313.192 363.972 312.699 363.972 312.091V300.129Z" fill="#9A523C"/>
</g>
<g id="Group_12">
<path id="Vector_10" fill-rule="evenodd" clip-rule="evenodd" d="M322.705 379.847C322.705 379.847 338.313 396.507 366.271 396.507C394.229 396.507 407.779 381.847 407.779 381.847C407.779 381.847 391.392 409.648 366.271 411.212C341.151 412.776 322.705 379.847 322.705 379.847Z" fill="#79341F"/>
</g>
<g id="Group_13">
<path id="Vector_11" fill-rule="evenodd" clip-rule="evenodd" d="M296.184 329.106C296.184 329.106 298.648 345.024 306.109 359.423C315.583 377.711 333.229 396.794 366.266 396.889C426.594 397.064 435.08 328.694 433.97 328.417L401.192 344.678C401.192 344.678 367.517 335.996 332.126 344.844C331.465 345.009 296.184 329.106 296.184 329.106Z" fill="black" fill-opacity="0.32"/>
</g>
<g id="Group_14">
<g id="Group_15">
<path id="Vector_12" fill-rule="evenodd" clip-rule="evenodd" d="M397.695 351.199C397.585 368.437 383.55 378.873 366.286 378.873C348.955 378.873 334.891 368.327 334.891 350.996H397.695V351.199Z" fill="#840333"/>
</g>
<g id="Group_16">
<path id="Vector_13" fill-rule="evenodd" clip-rule="evenodd" d="M387.322 353.81C387.249 364.568 377.858 373.281 366.303 373.281C354.702 373.281 345.284 364.5 345.284 353.684H387.322V353.81Z" fill="#4E0013"/>
</g>
<g id="Group_17">
<path id="Vector_14" fill-rule="evenodd" clip-rule="evenodd" d="M394.392 365.02C389.237 375.32 378.585 378.874 366.293 378.874C362.928 378.874 359.807 378.691 356.766 377.708L356.643 370.929C356.643 367.765 359.213 365.195 362.377 365.195H393.916C394.044 365.195 394.171 365.2 394.298 365.208L394.392 365.02ZM356.509 380.842L356.643 380.885L356.592 380.869L356.509 380.842ZM356.355 380.791L356.482 380.832L356.409 380.808L356.355 380.791ZM356.054 380.689L356.226 380.748C356.165 380.727 356.105 380.706 356.044 380.684L356.054 380.689ZM355.79 380.597L355.901 380.635L355.863 380.622L355.79 380.597ZM355.634 380.539L355.739 380.577L355.681 380.557L355.634 380.539ZM355.473 380.482L355.58 380.52L355.5 380.492L355.473 380.482ZM355.325 380.426L355.436 380.468L355.32 380.425L355.234 380.393L355.325 380.426ZM355.08 380.334L355.17 380.369L355.142 380.358L355.08 380.334ZM354.92 380.272L355.008 380.305L354.962 380.288L354.92 380.272ZM354.76 380.21L354.842 380.242L354.783 380.219L354.76 380.21ZM354.605 380.148L354.662 380.17L354.605 380.148L354.554 380.127L354.605 380.148ZM354.377 380.055L354.449 380.084L354.428 380.076L354.377 380.055ZM354.215 379.988L354.285 380.017L354.252 380.003L354.215 379.988ZM354.054 379.92L354.12 379.947L354.075 379.929L354.054 379.92ZM353.895 379.851L353.928 379.866L353.895 379.851ZM353.686 379.761L353.737 379.783L353.686 379.761ZM353.519 379.687L353.575 379.711L353.549 379.7L353.519 379.687ZM353.358 379.614L353.408 379.636L353.358 379.614ZM353.199 379.543L353.215 379.551L353.199 379.543ZM353.005 379.452L353.035 379.466L353.005 379.452ZM352.831 379.371L352.874 379.391L352.831 379.371ZM352.669 379.293L352.707 379.312L352.669 379.293ZM352.511 379.216L352.518 379.219L352.511 379.216ZM352.336 379.129L352.344 379.133L352.336 379.129ZM352.153 379.038L352.183 379.054L352.153 379.038ZM351.991 378.955L352.019 378.969L351.991 378.955ZM351.486 378.689L351.504 378.7L351.486 378.689ZM351.322 378.602L351.341 378.613L351.322 378.602ZM350.827 378.326L350.835 378.331L350.827 378.326ZM350.661 378.232L350.676 378.24L350.661 378.232ZM350.012 377.847L350.02 377.852L350.012 377.847ZM349.372 377.447L349.375 377.449L349.372 377.447ZM342.305 371.254L342.309 371.257L342.305 371.254ZM341.825 370.671L341.829 370.677L341.825 370.671ZM341.357 370.075L341.365 370.085L341.357 370.075ZM341.245 369.929L341.248 369.932L341.245 369.929ZM340.904 369.469L340.912 369.48L340.904 369.469ZM340.794 369.319L340.801 369.329L340.794 369.319ZM340.465 368.853L340.474 368.865L340.465 368.853ZM340.36 368.698L340.369 368.712L340.36 368.698ZM340.041 368.224L340.051 368.24L340.041 368.224ZM339.938 368.068L339.951 368.085L339.938 368.068ZM339.632 367.585L339.642 367.603L339.632 367.585ZM339.532 367.424L339.546 367.448L339.532 367.424ZM339.438 367.272L339.443 367.279L339.438 367.272ZM339.237 366.937L339.248 366.955L339.237 366.937ZM339.142 366.773L339.156 366.799L339.142 366.773ZM339.051 366.617L339.061 366.633L339.051 366.617ZM338.86 366.28L338.87 366.297L338.86 366.28ZM338.766 366.111L338.782 366.139L338.766 366.111ZM338.678 365.952L338.691 365.974L338.678 365.952ZM338.497 365.611L338.506 365.628L338.497 365.611ZM338.406 365.437L338.424 365.471L338.406 365.437ZM338.323 365.277L338.338 365.305L338.323 365.277ZM394.453 364.899L394.407 364.991L394.486 364.831L394.453 364.899ZM338.151 364.936L338.158 364.95L338.151 364.936ZM394.537 364.729L394.505 364.792L394.583 364.633L394.537 364.729ZM338.062 364.756L338.08 364.791L338.062 364.756ZM337.983 364.592L338 364.627L337.983 364.592ZM394.62 364.557L394.599 364.6L394.685 364.42L394.62 364.557ZM337.906 364.433L337.909 364.439L337.906 364.433ZM394.873 364.015C394.813 364.148 394.752 364.28 394.69 364.41L394.784 364.211L394.873 364.015ZM337.822 364.251L337.827 364.264L337.822 364.251ZM337.736 364.065L337.752 364.103L337.736 364.065ZM394.94 363.869L394.886 363.988L394.961 363.824L394.94 363.869ZM337.659 363.898L337.677 363.937L337.659 363.898ZM395.018 363.695L394.981 363.777L395.047 363.63L395.018 363.695ZM337.586 363.735L337.596 363.754L337.586 363.735ZM395.095 363.52L395.069 363.578L395.133 363.431L395.095 363.52ZM337.508 363.559L337.511 363.566L337.508 363.559ZM337.425 363.366L337.441 363.404L337.425 363.366ZM395.169 363.347L395.153 363.383L395.225 363.216L395.169 363.347ZM337.352 363.196L337.37 363.239L337.352 363.196ZM395.4 362.794C395.346 362.926 395.292 363.059 395.236 363.189L395.321 362.989L395.4 362.794ZM337.284 363.032L337.295 363.059L337.284 363.032ZM395.462 362.641L395.419 362.748L395.478 362.6L395.462 362.641ZM337.131 362.657L337.147 362.697L337.131 362.657ZM395.532 362.465L395.502 362.54L395.556 362.403L395.532 362.465ZM337.062 362.484L337.08 362.53L337.062 362.484ZM336.997 362.317L337.011 362.353L336.997 362.317ZM395.601 362.286L395.582 362.339L395.634 362.2L395.601 362.286ZM395.669 362.108L395.657 362.141L395.717 361.982L395.669 362.108ZM336.854 361.941L336.868 361.981L336.854 361.941ZM395.806 361.742C395.781 361.81 395.755 361.877 395.731 361.944L395.806 361.742ZM336.789 361.764L336.806 361.813L336.789 361.764ZM395.868 361.57L395.811 361.729L395.876 361.546L395.868 361.57ZM336.728 361.595L336.742 361.637L336.728 361.595ZM395.932 361.388L395.897 361.487L395.946 361.347L395.932 361.388ZM395.994 361.208L395.97 361.278L396.016 361.146L395.994 361.208ZM336.594 361.216L336.609 361.256L336.594 361.216ZM336.532 361.036L336.55 361.087L336.532 361.036ZM396.056 361.027L396.04 361.075L396.085 360.941L396.056 361.027ZM336.475 360.865L336.491 360.911L336.475 360.865ZM396.117 360.845L396.107 360.874L396.158 360.72L396.117 360.845ZM336.421 360.696L336.422 360.704L336.421 360.696ZM396.238 360.471C396.217 360.54 396.195 360.607 396.174 360.673L396.238 360.471ZM336.352 360.484L336.365 360.524L336.352 360.484ZM396.293 360.296L396.249 360.438L396.301 360.271L396.293 360.296ZM336.295 360.301L336.311 360.353L336.295 360.301ZM396.349 360.111L396.322 360.204L396.362 360.068L396.349 360.111ZM336.241 360.127L336.257 360.177L336.241 360.127ZM396.405 359.927L396.386 359.994L396.424 359.865L396.405 359.927ZM336.19 359.955L336.196 359.979L336.19 359.955ZM396.459 359.742L396.446 359.788L396.484 359.656L396.459 359.742ZM336.128 359.745L336.139 359.783L336.128 359.745ZM336.074 359.557L336.09 359.611L336.074 359.557ZM396.512 359.557L396.505 359.584L396.548 359.43L396.512 359.557ZM336.024 359.381L336.04 359.435L336.024 359.381ZM396.617 359.177C396.599 359.245 396.58 359.314 396.561 359.381L396.617 359.177ZM335.978 359.209L335.986 359.242L335.978 359.209ZM396.664 358.998L396.629 359.131L396.671 358.973L396.664 358.998ZM335.922 359L335.93 359.035L335.922 359ZM396.714 358.811L396.69 358.9L396.725 358.768L396.714 358.811ZM335.871 358.806L335.886 358.862L335.871 358.806ZM396.762 358.624L396.744 358.688L396.777 358.559L396.762 358.624ZM335.827 358.627L335.841 358.685L335.832 358.651L335.827 358.627ZM335.784 358.454L335.793 358.495L335.784 358.454ZM396.808 358.435L396.797 358.479L396.828 358.346L396.808 358.435ZM335.735 358.25L335.741 358.279L335.735 358.25ZM396.852 358.247L396.846 358.272L396.884 358.113L396.852 358.247ZM335.687 358.048L335.699 358.104L335.687 358.048ZM396.941 357.858C396.927 357.929 396.911 357.997 396.895 358.065L396.941 357.858ZM335.647 357.868L335.66 357.927L335.652 357.893L335.647 357.868ZM396.981 357.679L396.954 357.806L396.988 357.652L396.981 357.679ZM335.607 357.691L335.618 357.739L335.607 357.691ZM397.023 357.489L397.004 357.575L397.032 357.443L397.023 357.489ZM335.566 357.497L335.569 357.515L335.566 357.497ZM397.062 357.298L397.048 357.362L397.075 357.231L397.062 357.298ZM335.521 357.284L335.532 357.339L335.521 357.284ZM335.484 357.101L335.497 357.161L335.491 357.129L335.484 357.101ZM397.101 357.107L397.091 357.15L397.118 357.013L397.101 357.107ZM335.45 356.922L335.461 356.975L335.45 356.922ZM397.137 356.916L397.133 356.94L397.164 356.774L397.137 356.916ZM335.416 356.742V356.746V356.742ZM397.21 356.519C397.198 356.591 397.185 356.661 397.172 356.73L397.21 356.519ZM335.375 356.513L335.384 356.567L335.375 356.513ZM397.242 356.338L397.22 356.462L397.247 356.309L397.242 356.338ZM335.343 356.327L335.352 356.389L335.348 356.359L335.343 356.327ZM397.274 356.145L397.26 356.231L397.282 356.096L397.274 356.145ZM335.313 356.147L335.322 356.203L335.313 356.147ZM397.306 355.953L397.297 356.013L397.317 355.881L397.306 355.953ZM335.282 355.969L335.285 355.981L335.282 355.969ZM397.336 355.758L397.33 355.8L397.351 355.661L397.336 355.758ZM335.247 355.736L335.255 355.79L335.247 355.736ZM335.219 355.547L335.228 355.609L335.223 355.58L335.219 355.547ZM397.365 355.564L397.362 355.586L397.387 355.411L397.365 355.564ZM335.193 355.365L335.201 355.424L335.193 355.365ZM397.421 355.161C397.411 355.231 397.402 355.301 397.392 355.373L397.421 355.161ZM335.168 355.185L335.172 355.214L335.168 355.185ZM397.445 354.978L397.429 355.099L397.449 354.946L397.445 354.978ZM335.139 354.954L335.145 355.005L335.139 354.954ZM397.469 354.782L397.459 354.867L397.475 354.731L397.469 354.782ZM335.115 354.762L335.122 354.824L335.118 354.797L335.115 354.762ZM397.492 354.586L397.484 354.647L397.5 354.513L397.492 354.586ZM335.093 354.577L335.101 354.637L335.096 354.599L335.093 354.577ZM335.074 354.395L335.077 354.434L335.074 354.395ZM397.513 354.391L397.51 354.43L397.524 354.287L397.513 354.391ZM335.05 354.168L335.055 354.214L335.05 354.168ZM397.534 354.193L397.532 354.214L397.551 354.028L397.534 354.193ZM335.031 353.969L335.036 354.032L335.034 354.007L335.031 353.969ZM397.574 353.784C397.567 353.856 397.561 353.927 397.553 353.999L397.574 353.784ZM335.013 353.784L335.018 353.846L335.015 353.808L335.013 353.784ZM397.589 353.601L397.578 353.717L397.591 353.566L397.589 353.601ZM334.997 353.601L335.002 353.646L334.997 353.601ZM397.604 353.402L397.597 353.485L397.609 353.348L397.604 353.402ZM334.98 353.376L334.983 353.418L334.98 353.376ZM397.618 353.203L397.615 353.263L397.624 353.126L397.618 353.203ZM334.965 353.173L334.97 353.235L334.967 353.211L334.965 353.173ZM334.953 352.983L334.957 353.048L334.954 353.012L334.953 352.983ZM397.632 353.004L397.629 353.044L397.639 352.897L397.632 353.004ZM334.942 352.8L334.945 352.851L334.942 352.8ZM397.644 352.805V352.826L397.653 352.623L397.644 352.805ZM334.93 352.584L334.932 352.615L334.93 352.584ZM397.664 352.389C397.661 352.463 397.658 352.536 397.655 352.607L397.664 352.389ZM334.921 352.37L334.922 352.432V352.41L334.921 352.37ZM397.672 352.205L397.668 352.319L397.674 352.17L397.672 352.205ZM334.913 352.179L334.915 352.244V352.209L334.913 352.179ZM397.68 352.004L397.677 352.087L397.682 351.948L397.68 352.004ZM334.907 351.993L334.908 352.049L334.907 351.993ZM397.685 351.803L397.683 351.862L397.687 351.724L397.685 351.803ZM334.9 351.787L334.902 351.808L334.9 351.787ZM397.69 351.603L397.688 351.641L397.691 351.491L397.69 351.603ZM334.895 351.563L334.897 351.623L334.895 351.563ZM334.894 351.37V351.436V351.402V351.37ZM397.696 350.996L397.695 351.198C397.695 351.273 397.693 351.346 397.693 351.42L397.695 351.198L397.696 350.996ZM334.891 351.182L334.892 351.24L334.891 351.182Z" fill="#EE2661"/>
</g>
<g id="Group_18">
<path id="Vector_15" fill-rule="evenodd" clip-rule="evenodd" d="M390.728 353.839C390.728 355.408 389.455 356.681 387.886 356.681H344.543C342.974 356.681 341.7 355.408 341.7 353.839V350.996H390.728V353.839Z" fill="white"/>
</g>
</g>
<g id="Group_19">
<path id="Vector_16" fill-rule="evenodd" clip-rule="evenodd" d="M383.72 369.518C383.72 368.493 382.889 367.661 381.864 367.661H362.551C361.527 367.661 360.695 368.493 360.695 369.518C360.695 370.542 361.527 371.374 362.551 371.374H381.864C382.889 371.374 383.72 370.542 383.72 369.518Z" fill="#FB98B5"/>
</g>
<g id="Group_20">
<path id="Vector_17" fill-rule="evenodd" clip-rule="evenodd" d="M417.259 267.011C418.267 266.633 419.388 266.716 420.327 267.24C421.267 267.765 421.929 268.675 422.136 269.73C424.547 281.955 431.414 316.851 433.519 327.555C433.6 327.971 433.944 328.283 434.366 328.323C434.786 328.363 435.184 328.121 435.342 327.729C440.699 314.057 461.341 257.821 441.269 250.509C439.817 249.973 439 248.43 439.375 246.928C440.497 241.525 439.762 228.957 417.073 212.085C416.723 211.808 416.232 211.794 415.868 212.05C415.503 212.308 415.35 212.773 415.493 213.196C416.358 215.678 417.297 219.291 417.095 222.84C416.99 223.536 416.473 224.098 415.786 224.26C415.102 224.423 414.387 224.154 413.979 223.579C404.566 211.056 367.737 168.583 318.333 200.862C315.01 203.036 311.136 204.221 307.164 204.275C302.787 204.387 297.273 204.463 294.528 204.501C294.079 204.508 293.652 204.704 293.353 205.039C293.054 205.375 292.911 205.823 292.958 206.27C293.278 209.023 294.248 214.389 297.128 217.576C297.523 218.025 297.619 218.662 297.373 219.207C297.128 219.753 296.587 220.103 295.99 220.103C290.451 220.153 282.951 220.164 279.375 220.17C278.855 220.17 278.358 220.393 278.011 220.783C277.664 221.172 277.5 221.691 277.559 222.208C279.592 235.898 296.499 312.691 417.259 267.011Z" fill="#00121E"/>
</g>
</g>
<g id="Group_21">
<path id="Vector_18" fill-rule="evenodd" clip-rule="evenodd" d="M322.531 424.206C322.531 424.206 364.44 466.851 407.452 424.021C413.938 423.373 414.292 426.266 413.246 430.64C414.908 428.07 373.028 478.608 318.119 431.742C316.294 427.154 317.579 424.526 322.531 424.206Z" fill="#7D0500"/>
</g>
</g>
<g id="Laptop">
<g id="Group_22">
<path id="Vector_19" fill-rule="evenodd" clip-rule="evenodd" d="M529.789 484.482C529.789 480.54 528.223 476.762 525.437 473.976C522.652 471.19 518.873 469.626 514.934 469.626C459.874 469.626 267.967 469.626 216.04 469.626C212.583 469.626 209.265 470.998 206.82 473.444C204.374 475.889 203 479.207 203 482.666C203 518.805 203 620.127 203 658.914C203 662.992 204.62 666.9 207.503 669.783C210.385 672.666 214.296 674.286 218.371 674.286C272.884 674.286 456.713 674.286 513.161 674.286C517.571 674.286 521.801 672.534 524.919 669.416C528.037 666.298 529.789 662.069 529.789 657.66C529.789 618.638 529.789 521.679 529.789 484.482Z" fill="#263C51"/>
</g>
<path id="Vector_20" fill-rule="evenodd" clip-rule="evenodd" d="M337.523 594.147L238.955 657.018C236.733 658.433 233.922 658.545 231.597 657.307C229.271 656.068 227.793 653.675 227.729 651.042C227.738 650.829 227.736 650.617 227.736 650.404C227.736 613.656 227.736 537.41 227.736 503.043C227.736 493.396 235.557 485.575 245.202 485.575C296.935 485.575 449.154 485.575 503.9 485.575C503.945 485.575 503.991 485.575 504.036 485.577C504.517 485.579 504.938 485.899 505.07 486.359C505.202 486.822 505.016 487.315 504.612 487.573L398.811 555.055C392.726 543.365 380.499 535.377 366.421 535.377C346.279 535.377 329.927 551.729 329.927 571.869C329.927 580.253 332.761 587.981 337.523 594.147Z" fill="#6B7491"/>
<g id="Group_23">
<path id="Vector_21" d="M366.318 598.785C381.102 598.785 393.087 586.8 393.087 572.017C393.087 557.233 381.102 545.248 366.318 545.248C351.535 545.248 339.55 557.233 339.55 572.017C339.55 586.8 351.535 598.785 366.318 598.785Z" fill="#6B7491"/>
</g>
<g id="Group_24">
<path id="Vector_22" fill-rule="evenodd" clip-rule="evenodd" d="M529.789 678.434C529.789 676.137 527.922 674.271 525.624 674.271H207.165C204.866 674.271 203 676.137 203 678.434V686.762C203 689.061 204.866 690.927 207.165 690.927H525.624C527.922 690.927 529.789 689.061 529.789 686.762V678.434Z" fill="#8895B5"/>
</g>
<path id="Vector_23" fill-rule="evenodd" clip-rule="evenodd" d="M299.425 670.293C299.425 668.038 297.595 666.208 295.339 666.208H252.244C249.989 666.208 248.158 668.038 248.158 670.293V678.467C248.158 680.723 249.989 682.553 252.244 682.553H295.339C297.595 682.553 299.425 680.723 299.425 678.467V670.293Z" fill="#3F4553"/>
<g id="Group_25">
<path id="Vector_24" fill-rule="evenodd" clip-rule="evenodd" d="M497.261 670.293C497.261 668.038 495.431 666.208 493.175 666.208H450.08C447.825 666.208 445.994 668.038 445.994 670.293V678.467C445.994 680.723 447.825 682.553 450.08 682.553H493.175C495.431 682.553 497.261 680.723 497.261 678.467V670.293Z" fill="#3F4553"/>
</g>
</g>
</g>
</g>
</svg>
