<svg width="942" height="644" viewBox="0 0 942 644" fill="none" xmlns="http://www.w3.org/2000/svg">
<g id="Me_Background">
<g id="Background">
<g id="Backdrop">
<g id="Dark Backdrop">
<path id="Vector" fill-rule="evenodd" clip-rule="evenodd" d="M0 584.514L54.9735 84.1012L144.813 0L253.551 33.6908L812.261 3.3659L835.821 276.237L916.672 313.396L941.279 602.307L0 584.514Z" fill="#1D182F"/>
</g>
<g id="Light Backdrop">
<g id="Back">
<path id="Vector_2" fill-rule="evenodd" clip-rule="evenodd" d="M870.713 84.0444L144.793 110.956L177.773 536.01L869.442 533.359L870.713 84.0444Z" fill="#2400A4"/>
</g>
<g id="Front">
<path id="Vector_3" fill-rule="evenodd" clip-rule="evenodd" d="M881.567 84.0444H144.793L194.558 541.017L881.567 542.635V84.0444Z" fill="#DCE3FD"/>
</g>
</g>
<g id="Border 2">
<path id="Vector_4" fill-rule="evenodd" clip-rule="evenodd" d="M798.512 65.4232V101.886L847.268 100.95L846.333 194.443L889.359 198.183L878.12 60.7485L798.512 65.4232Z" fill="#F47456"/>
</g>
<g id="Border 1">
<path id="Vector_5" fill-rule="evenodd" clip-rule="evenodd" d="M249.445 567.329V530.866L200.689 531.803L201.624 438.309L158.598 434.569L169.837 572.004L249.445 567.329Z" fill="#F47456"/>
</g>
<g id="Music">
<g id="Group">
<path id="Vector_6" d="M697.031 512.232C703.533 512.232 708.804 508.403 708.804 503.679C708.804 498.956 703.533 495.127 697.031 495.127C690.529 495.127 685.258 498.956 685.258 503.679C685.258 508.403 690.529 512.232 697.031 512.232Z" fill="#1D182F"/>
</g>
<g id="Group_2">
<path id="Vector_7" d="M727.136 505.422C733.638 505.422 738.909 501.593 738.909 496.87C738.909 492.147 733.638 488.318 727.136 488.318C720.634 488.318 715.363 492.147 715.363 496.87C715.363 501.593 720.634 505.422 727.136 505.422Z" fill="#1D182F"/>
</g>
<g id="Group_3">
<path id="Vector_8" fill-rule="evenodd" clip-rule="evenodd" d="M703.706 502.506L703.536 454.262L738.728 436.708V495.664H734.113L733.78 445.33L708.767 456.691V503.661L703.706 502.506Z" fill="#1D182F"/>
</g>
</g>
</g>
<g id="Note">
<g id="Group_4">
<g id="Group_5">
<path id="Vector_9" d="M247.295 301.055H297.908" stroke="#1D182F" stroke-miterlimit="1.5" stroke-linecap="round" stroke-linejoin="round"/>
</g>
<g id="Group_6">
<path id="Vector_10" d="M247.295 319.154H297.908" stroke="#1D182F" stroke-miterlimit="1.5" stroke-linecap="round" stroke-linejoin="round"/>
</g>
<g id="Group_7">
<path id="Vector_11" d="M247.295 313.24H297.908" stroke="#1D182F" stroke-miterlimit="1.5" stroke-linecap="round" stroke-linejoin="round"/>
</g>
<g id="Group_8">
<path id="Vector_12" d="M247.295 307.148H297.908" stroke="#1D182F" stroke-miterlimit="1.5" stroke-linecap="round" stroke-linejoin="round"/>
</g>
<g id="Group_9">
<path id="Vector_13" d="M247.295 327.576H297.908" stroke="#1D182F" stroke-miterlimit="1.5" stroke-linecap="round" stroke-linejoin="round"/>
</g>
<g id="Group_10">
<path id="Vector_14" d="M247.295 335.461H297.908" stroke="#1D182F" stroke-miterlimit="1.5" stroke-linecap="round" stroke-linejoin="round"/>
</g>
<g id="Group_11">
<path id="Vector_15" d="M247.295 349.797H297.908" stroke="#1D182F" stroke-miterlimit="1.5" stroke-linecap="round" stroke-linejoin="round"/>
</g>
<g id="Group_12">
<path id="Vector_16" d="M247.295 343.525H297.908" stroke="#1D182F" stroke-miterlimit="1.5" stroke-linecap="round" stroke-linejoin="round"/>
</g>
<g id="Group_13">
<path id="Vector_17" d="M247.295 355.89H297.908" stroke="#1D182F" stroke-miterlimit="1.5" stroke-linecap="round" stroke-linejoin="round"/>
</g>
<g id="Group_14">
<path id="Vector_18" d="M247.295 361.086H297.908" stroke="#1D182F" stroke-miterlimit="1.5" stroke-linecap="round" stroke-linejoin="round"/>
</g>
<g id="Group_15">
<path id="Vector_19" d="M247.295 378.648H254.837" stroke="#1D182F" stroke-miterlimit="1.5" stroke-linecap="round" stroke-linejoin="round"/>
</g>
<g id="Group_16">
<path id="Vector_20" d="M247.295 370.943H262.378" stroke="#1D182F" stroke-miterlimit="1.5" stroke-linecap="round" stroke-linejoin="round"/>
</g>
</g>
<g id="Group_17">
<path id="Vector_21" fill-rule="evenodd" clip-rule="evenodd" d="M223.282 208.162L233.902 400.145L310.695 396.876L329.484 192.639L223.282 208.162Z" stroke="#1D182F" stroke-miterlimit="1.5" stroke-linecap="round" stroke-linejoin="round"/>
</g>
<g id="Group_18">
<path id="Vector_22" fill-rule="evenodd" clip-rule="evenodd" d="M243.353 222.989L248.791 270.673L301.912 269.419L311.532 208.767L243.353 222.989Z" fill="#584696"/>
</g>
</g>
<g id="Code Screen">
<g id="Group_19">
<path id="Vector_23" fill-rule="evenodd" clip-rule="evenodd" d="M815.795 154.564C815.795 149.27 811.497 144.972 806.204 144.972H596.291C590.997 144.972 586.698 149.27 586.698 154.564V314.156C586.698 319.45 590.997 323.747 596.291 323.747H806.204C811.497 323.747 815.795 319.45 815.795 314.156V154.564Z" fill="#20135B"/>
</g>
<g id="Group_20">
<path id="Vector_24" fill-rule="evenodd" clip-rule="evenodd" d="M709.997 183.174C709.997 181.278 708.457 179.737 706.56 179.737H600.528C598.631 179.737 597.092 181.278 597.092 183.174C597.092 185.071 598.631 186.611 600.528 186.611H706.56C708.457 186.611 709.997 185.071 709.997 183.174Z" fill="#00A8B5"/>
</g>
<g id="Group_21">
<path id="Vector_25" fill-rule="evenodd" clip-rule="evenodd" d="M752.561 197.331C752.561 195.434 751.02 193.894 749.124 193.894H600.529C598.631 193.894 597.092 195.434 597.092 197.331C597.092 199.227 598.631 200.768 600.529 200.768H749.124C751.02 200.768 752.561 199.227 752.561 197.331Z" fill="#00A8B5"/>
</g>
<g id="Group_22">
<path id="Vector_26" fill-rule="evenodd" clip-rule="evenodd" d="M714.816 225.823C714.816 223.927 713.275 222.386 711.379 222.386H600.529C598.631 222.386 597.092 223.927 597.092 225.823C597.092 227.72 598.631 229.26 600.529 229.26H711.379C713.275 229.26 714.816 227.72 714.816 225.823Z" fill="#00A8B5"/>
</g>
<g id="Group_23">
<path id="Vector_27" fill-rule="evenodd" clip-rule="evenodd" d="M781.53 225.823C781.53 223.927 779.99 222.386 778.093 222.386H723.459C721.562 222.386 720.022 223.927 720.022 225.823C720.022 227.72 721.562 229.26 723.459 229.26H778.093C779.99 229.26 781.53 227.72 781.53 225.823Z" fill="#00A8B5"/>
</g>
<g id="Group_24">
<path id="Vector_28" fill-rule="evenodd" clip-rule="evenodd" d="M701.183 254.137C701.183 252.24 699.642 250.7 697.746 250.7H600.528C598.631 250.7 597.092 252.24 597.092 254.137C597.092 256.033 598.631 257.574 600.528 257.574H697.746C699.642 257.574 701.183 256.033 701.183 254.137Z" fill="#00A8B5"/>
</g>
<g id="Group_25">
<path id="Vector_29" fill-rule="evenodd" clip-rule="evenodd" d="M771.746 254.137C771.746 252.24 770.205 250.7 768.309 250.7H709.123C707.226 250.7 705.687 252.24 705.687 254.137C705.687 256.033 707.226 257.574 709.123 257.574H768.309C770.205 257.574 771.746 256.033 771.746 254.137Z" fill="#00A8B5"/>
</g>
<g id="Group_26">
<path id="Vector_30" fill-rule="evenodd" clip-rule="evenodd" d="M658.599 239.98C658.599 238.084 657.059 236.543 655.163 236.543H600.529C598.631 236.543 597.092 238.084 597.092 239.98C597.092 241.877 598.631 243.417 600.529 243.417H655.163C657.059 243.417 658.599 241.877 658.599 239.98Z" fill="#00A8B5"/>
</g>
<g id="Group_27">
<path id="Vector_31" fill-rule="evenodd" clip-rule="evenodd" d="M775.507 239.98C775.507 238.084 773.967 236.543 772.07 236.543H668.983C667.086 236.543 665.546 238.084 665.546 239.98C665.546 241.877 667.086 243.417 668.983 243.417H772.07C773.967 243.417 775.507 241.877 775.507 239.98Z" fill="#00A8B5"/>
</g>
<g id="Group_28">
<path id="Vector_32" fill-rule="evenodd" clip-rule="evenodd" d="M673.961 268.294C673.961 266.397 672.421 264.857 670.524 264.857H600.529C598.631 264.857 597.092 266.397 597.092 268.294C597.092 270.19 598.631 271.731 600.529 271.731H670.524C672.421 271.731 673.961 270.19 673.961 268.294Z" fill="#00A8B5"/>
</g>
<g id="Group_29">
<path id="Vector_33" fill-rule="evenodd" clip-rule="evenodd" d="M756.751 268.294C756.751 266.397 755.211 264.857 753.314 264.857H683.319C681.421 264.857 679.882 266.397 679.882 268.294C679.882 270.19 681.421 271.731 683.319 271.731H753.314C755.211 271.731 756.751 270.19 756.751 268.294Z" fill="#00A8B5"/>
</g>
<g id="Group_30">
<path id="Vector_34" fill-rule="evenodd" clip-rule="evenodd" d="M689.203 282.45C689.203 280.554 687.663 279.013 685.766 279.013H599.811C597.915 279.013 596.375 280.554 596.375 282.45C596.375 284.347 597.915 285.887 599.811 285.887H685.766C687.663 285.887 689.203 284.347 689.203 282.45Z" fill="#00A8B5"/>
</g>
<g id="Group_31">
<path id="Vector_35" fill-rule="evenodd" clip-rule="evenodd" d="M789.913 282.45C789.913 280.554 788.373 279.013 786.476 279.013H700.521C698.625 279.013 697.085 280.554 697.085 282.45C697.085 284.347 698.625 285.887 700.521 285.887H786.476C788.373 285.887 789.913 284.347 789.913 282.45Z" fill="#00A8B5"/>
</g>
<g id="Group_32">
<path id="Vector_36" fill-rule="evenodd" clip-rule="evenodd" d="M689.92 211.488C689.92 209.591 688.38 208.051 686.483 208.051H600.528C598.632 208.051 597.092 209.591 597.092 211.488C597.092 213.384 598.632 214.925 600.528 214.925H686.483C688.38 214.925 689.92 213.384 689.92 211.488Z" fill="#00A8B5"/>
</g>
<g id="Group_33">
<path id="Vector_37" fill-rule="evenodd" clip-rule="evenodd" d="M785.276 211.488C785.276 209.591 783.736 208.051 781.839 208.051H701.238C699.341 208.051 697.802 209.591 697.802 211.488C697.802 213.384 699.341 214.925 701.238 214.925H781.839C783.736 214.925 785.276 213.384 785.276 211.488Z" fill="#00A8B5"/>
</g>
<g id="Group_34">
<path id="Vector_38" fill-rule="evenodd" clip-rule="evenodd" d="M762.774 183.174C762.774 181.278 761.233 179.737 759.337 179.737H719.158C717.262 179.737 715.722 181.278 715.722 183.174C715.722 185.071 717.262 186.611 719.158 186.611H759.337C761.233 186.611 762.774 185.071 762.774 183.174Z" fill="#00A8B5"/>
</g>
<g id="Group_35">
<path id="Vector_39" d="M791.477 159.574C792.936 159.574 794.119 158.392 794.119 156.933C794.119 155.474 792.936 154.291 791.477 154.291C790.018 154.291 788.835 155.474 788.835 156.933C788.835 158.392 790.018 159.574 791.477 159.574Z" fill="#DFE14A"/>
</g>
<g id="Group_36">
<path id="Vector_40" d="M806.888 159.574C808.347 159.574 809.53 158.392 809.53 156.933C809.53 155.474 808.347 154.291 806.888 154.291C805.429 154.291 804.246 155.474 804.246 156.933C804.246 158.392 805.429 159.574 806.888 159.574Z" fill="#DFE14A"/>
</g>
<g id="Group_37">
<path id="Vector_41" d="M799.362 159.574C800.821 159.574 802.003 158.392 802.003 156.933C802.003 155.474 800.821 154.291 799.362 154.291C797.902 154.291 796.72 155.474 796.72 156.933C796.72 158.392 797.902 159.574 799.362 159.574Z" fill="#DFE14A"/>
</g>
</g>
</g>
<g id="Me">
<g id="Group_38">
<g id="Group_39">
<path id="Vector_42" fill-rule="evenodd" clip-rule="evenodd" d="M629.584 441.651C629.584 405.889 600.55 376.856 564.789 376.856H404.914C369.154 376.856 340.12 405.889 340.12 441.651V571.241C340.12 607.002 369.154 636.036 404.914 636.036H564.789C600.55 636.036 629.584 607.002 629.584 571.241V441.651Z" fill="#4B0704"/>
</g>
<g id="Group_40">
<g id="Group_41">
<path id="Vector_43" fill-rule="evenodd" clip-rule="evenodd" d="M410.421 248.112C410.179 243.992 410.067 240.259 410.067 237.107C410.067 196.641 442.92 163.788 483.386 163.788C523.851 163.788 556.705 196.641 556.705 237.107C556.705 240.169 556.62 243.842 556.431 247.927C556.522 247.926 556.614 247.924 556.705 247.924C566.04 247.924 573.619 255.503 573.619 264.84C573.619 274.175 566.04 281.754 556.705 281.754C555.418 281.754 554.165 281.61 552.96 281.336C550.83 293.982 547.632 306.151 542.978 314.358C538.336 322.547 532.451 329.599 525.799 335.288V381.785C498.297 405.935 469.992 405.056 440.973 381.785V332.721C435.311 327.566 430.218 321.498 426.011 314.712C420.837 306.366 417.155 294.251 414.646 281.669C414.086 281.725 413.519 281.754 412.944 281.754C403.609 281.754 396.03 274.175 396.03 264.84C396.03 256.361 402.28 249.332 410.421 248.112Z" fill="#953B20"/>
</g>
<g id="Eyes">
<g id="Group_42">
<path id="Vector_44" fill-rule="evenodd" clip-rule="evenodd" d="M450.149 243.9C450.169 240.726 452.751 238.156 455.929 238.156C459.12 238.156 461.71 240.746 461.71 243.937V254.632C461.71 257.823 459.12 260.413 455.929 260.413C452.739 260.413 450.148 257.823 450.148 254.632V243.937L450.149 243.9Z" fill="#19090C"/>
</g>
<g id="Group_43">
<path id="Vector_45" fill-rule="evenodd" clip-rule="evenodd" d="M507.851 243.9C507.871 240.726 510.453 238.156 513.631 238.156C516.822 238.156 519.412 240.746 519.412 243.937V254.632C519.412 257.823 516.822 260.413 513.631 260.413C510.441 260.413 507.851 257.823 507.851 254.632V243.937L507.851 243.9Z" fill="#19090C"/>
</g>
</g>
<g id="Group_44">
<path id="Vector_46" fill-rule="evenodd" clip-rule="evenodd" d="M412.311 251.54C412.303 251.542 412.295 251.542 412.289 251.543C412.271 251.545 398.436 252.822 400.551 266.454C400.551 266.454 403.277 270.451 404.187 262.372C405.097 254.293 408.058 257.148 412.711 253.871C417.181 250.722 412.671 251.477 412.311 251.54Z" fill="#762209"/>
</g>
<g id="Group_45">
<path id="Vector_47" fill-rule="evenodd" clip-rule="evenodd" d="M557.896 251.366C557.896 251.366 571.75 252.635 569.634 266.276C569.634 266.276 566.908 270.273 565.997 262.194C565.088 254.115 562.127 256.97 557.474 253.693C552.82 250.415 557.896 251.366 557.896 251.366Z" fill="#762209"/>
</g>
<g id="Group_46">
<path id="Vector_48" fill-rule="evenodd" clip-rule="evenodd" d="M410 246.718C410.214 247.538 410.363 248.372 410.446 249.216C411.432 259.217 412.734 270.241 414.372 280.213C414.43 280.558 414.71 280.824 415.057 280.862C415.406 280.901 415.737 280.703 415.868 280.378C421.66 265.034 426.093 237.778 430.376 209.218C430.376 209.218 429.208 184.434 412.083 194.827C410.425 195.833 395.938 193.214 410 246.718Z" fill="#00121E"/>
</g>
<g id="Group_47">
<path id="Vector_49" fill-rule="evenodd" clip-rule="evenodd" d="M477.734 269.18V252.978C477.734 249.149 480.842 246.041 484.671 246.041C488.5 246.041 491.608 249.149 491.608 252.978V269.19C492.172 269.048 492.761 268.973 493.368 268.973C497.358 268.973 500.596 272.213 500.596 276.202C500.596 278.913 499.099 281.277 496.889 282.515C496.772 282.575 496.63 282.57 496.517 282.502C496.404 282.432 496.335 282.309 496.335 282.175C496.329 282.169 496.329 282.163 496.329 282.158C496.329 280.523 495.003 279.195 493.368 279.195C492.411 279.195 491.572 279.828 491.31 280.747C491.127 281.429 490.828 282.062 490.444 282.637C490.455 282.702 490.468 282.766 490.483 282.83C490.44 282.811 490.395 282.792 490.352 282.771C489.097 284.559 487.019 285.729 484.671 285.729C482.329 285.729 480.256 284.565 479 282.785C478.966 282.801 478.933 282.815 478.898 282.83C478.91 282.782 478.92 282.733 478.928 282.683C478.525 282.089 478.211 281.429 478.006 280.723C477.758 279.83 476.944 279.212 476.017 279.211C476.016 279.195 476.014 279.195 476.014 279.195C474.379 279.195 473.051 280.523 473.051 282.158C473.051 282.296 472.979 282.425 472.86 282.497C472.741 282.57 472.593 282.573 472.468 282.508C470.273 281.263 468.786 278.905 468.786 276.202C468.786 272.213 472.024 268.973 476.014 268.973C476.607 268.973 477.183 269.045 477.734 269.18Z" fill="#7A3824"/>
</g>
<g id="Group_48">
<path id="Vector_50" fill-rule="evenodd" clip-rule="evenodd" d="M482.455 252.697C482.455 252.089 481.962 251.596 481.355 251.596C480.747 251.596 480.254 252.089 480.254 252.697V264.659C480.254 265.266 480.747 265.76 481.355 265.76C481.962 265.76 482.455 265.266 482.455 264.659V252.697Z" fill="#9A523C"/>
</g>
<g id="Group_49">
<path id="Vector_51" fill-rule="evenodd" clip-rule="evenodd" d="M441.188 332.415C441.188 332.415 456.797 349.074 484.754 349.074C512.713 349.074 526.262 334.415 526.262 334.415C526.262 334.415 509.876 362.216 484.754 363.779C459.634 365.343 441.188 332.415 441.188 332.415Z" fill="#79341F"/>
</g>
<g id="Group_50">
<path id="Vector_52" fill-rule="evenodd" clip-rule="evenodd" d="M414.667 281.674C414.667 281.674 417.132 297.591 424.593 311.991C434.066 330.279 451.713 349.361 484.749 349.457C545.077 349.632 553.563 281.261 552.454 280.984L519.675 297.245C519.675 297.245 486 288.563 450.609 297.411C449.948 297.577 414.667 281.674 414.667 281.674Z" fill="black" fill-opacity="0.32"/>
</g>
<g id="Group_51">
<g id="Group_52">
<path id="Vector_53" fill-rule="evenodd" clip-rule="evenodd" d="M516.178 303.766C516.069 321.004 502.033 331.44 484.77 331.44C467.439 331.44 453.374 320.895 453.374 303.563H516.178V303.766Z" fill="#840333"/>
</g>
<g id="Group_53">
<path id="Vector_54" fill-rule="evenodd" clip-rule="evenodd" d="M505.805 306.378C505.732 317.135 496.342 325.848 484.786 325.848C473.186 325.848 463.768 317.067 463.768 306.251H505.805V306.378Z" fill="#4E0013"/>
</g>
<g id="Group_54">
<path id="Vector_55" fill-rule="evenodd" clip-rule="evenodd" d="M512.876 317.588C507.72 327.887 497.069 331.441 484.777 331.441C481.411 331.441 478.29 331.258 475.249 330.276L475.126 323.496C475.126 320.332 477.696 317.763 480.86 317.763H512.4C512.527 317.763 512.654 317.767 512.782 317.775L512.876 317.588ZM474.993 333.409L475.126 333.452L475.076 333.436L474.993 333.409ZM474.838 333.358L474.966 333.4L474.892 333.376L474.838 333.358ZM474.537 333.256L474.709 333.315C474.649 333.295 474.588 333.274 474.528 333.252L474.537 333.256ZM474.273 333.164L474.385 333.202L474.346 333.189L474.273 333.164ZM474.117 333.107L474.222 333.145L474.165 333.124L474.117 333.107ZM473.956 333.049L474.063 333.088L473.983 333.059L473.956 333.049ZM473.808 332.994L473.92 333.035L473.803 332.992L473.717 332.96L473.808 332.994ZM473.563 332.901L473.654 332.936L473.625 332.925L473.563 332.901ZM473.404 332.839L473.491 332.873L473.445 332.855L473.404 332.839ZM473.243 332.777L473.326 332.809L473.267 332.787L473.243 332.777ZM473.089 332.715L473.146 332.737L473.089 332.715L473.038 332.694L473.089 332.715ZM472.861 332.623L472.932 332.651L472.912 332.643L472.861 332.623ZM472.698 332.556L472.769 332.584L472.735 332.57L472.698 332.556ZM472.538 332.487L472.603 332.514L472.558 332.497L472.538 332.487ZM472.378 332.419L472.412 332.433L472.378 332.419ZM472.17 332.328L472.221 332.35L472.17 332.328ZM472.003 332.255L472.058 332.279L472.033 332.268L472.003 332.255ZM471.842 332.182L471.891 332.204L471.842 332.182ZM471.683 332.11L471.699 332.118L471.683 332.11ZM471.488 332.019L471.519 332.034L471.488 332.019ZM471.315 331.938L471.358 331.959L471.315 331.938ZM471.152 331.86L471.191 331.879L471.152 331.86ZM470.995 331.784L471.001 331.787L470.995 331.784ZM470.82 331.696L470.828 331.701L470.82 331.696ZM470.637 331.605L470.667 331.621L470.637 331.605ZM470.474 331.522L470.503 331.537L470.474 331.522ZM469.969 331.257L469.987 331.268L469.969 331.257ZM469.805 331.169L469.825 331.18L469.805 331.169ZM469.31 330.894L469.318 330.898L469.31 330.894ZM469.145 330.8L469.159 330.808L469.145 330.8ZM468.495 330.414L468.503 330.419L468.495 330.414ZM467.855 330.015L467.858 330.016L467.855 330.015ZM460.789 323.821L460.792 323.824L460.789 323.821ZM460.308 323.238L460.313 323.245L460.308 323.238ZM459.84 322.643L459.848 322.652L459.84 322.643ZM459.728 322.496L459.732 322.499L459.728 322.496ZM459.388 322.036L459.396 322.047L459.388 322.036ZM459.278 321.886L459.284 321.896L459.278 321.886ZM458.948 321.42L458.958 321.433L458.948 321.42ZM458.843 321.266L458.853 321.28L458.843 321.266ZM458.525 320.791L458.534 320.807L458.525 320.791ZM458.421 320.635L458.434 320.652L458.421 320.635ZM458.116 320.153L458.125 320.17L458.116 320.153ZM458.015 319.992L458.03 320.016L458.015 319.992ZM457.921 319.839L457.926 319.847L457.921 319.839ZM457.721 319.505L457.732 319.522L457.721 319.505ZM457.625 319.341L457.64 319.366L457.625 319.341ZM457.534 319.184L457.544 319.2L457.534 319.184ZM457.343 318.847L457.353 318.864L457.343 318.847ZM457.249 318.678L457.265 318.707L457.249 318.678ZM457.162 318.519L457.175 318.541L457.162 318.519ZM456.98 318.178L456.99 318.196L456.98 318.178ZM456.89 318.005L456.907 318.038L456.89 318.005ZM456.807 317.844L456.821 317.873L456.807 317.844ZM512.936 317.467L512.89 317.559L512.97 317.398L512.936 317.467ZM456.635 317.503L456.641 317.517L456.635 317.503ZM513.021 317.296L512.989 317.36L513.067 317.201L513.021 317.296ZM456.546 317.323L456.563 317.358L456.546 317.323ZM456.466 317.159L456.484 317.194L456.466 317.159ZM513.103 317.124L513.083 317.167L513.169 316.987L513.103 317.124ZM456.39 317L456.393 317.006L456.39 317ZM513.357 316.583C513.296 316.715 513.236 316.847 513.173 316.978L513.267 316.779L513.357 316.583ZM456.305 316.819L456.31 316.831L456.305 316.819ZM456.219 316.632L456.235 316.67L456.219 316.632ZM513.423 316.436L513.369 316.556L513.444 316.392L513.423 316.436ZM456.143 316.465L456.16 316.505L456.143 316.465ZM513.502 316.263L513.465 316.344L513.53 316.198L513.502 316.263ZM456.07 316.303L456.079 316.322L456.07 316.303ZM513.578 316.088L513.552 316.145L513.616 315.999L513.578 316.088ZM455.992 316.126L455.995 316.134L455.992 316.126ZM455.909 315.933L455.925 315.971L455.909 315.933ZM513.653 315.914L513.637 315.951L513.708 315.784L513.653 315.914ZM455.836 315.763L455.853 315.806L455.836 315.763ZM513.884 315.362C513.83 315.494 513.775 315.626 513.72 315.757L513.804 315.556L513.884 315.362ZM455.767 315.599L455.778 315.626L455.767 315.599ZM513.946 315.209L513.903 315.315L513.962 315.167L513.946 315.209ZM455.614 315.225L455.63 315.265L455.614 315.225ZM514.016 315.032L513.985 315.107L514.04 314.97L514.016 315.032ZM455.546 315.051L455.563 315.097L455.546 315.051ZM455.48 314.884L455.495 314.921L455.48 314.884ZM514.084 314.854L514.065 314.906L514.118 314.768L514.084 314.854ZM514.153 314.675L514.14 314.709L514.2 314.55L514.153 314.675ZM455.337 314.508L455.352 314.548L455.337 314.508ZM514.29 314.309C514.264 314.378 514.239 314.445 514.215 314.511L514.29 314.309ZM455.272 314.331L455.289 314.381L455.272 314.331ZM514.352 314.137L514.294 314.297L514.36 314.113L514.352 314.137ZM455.211 314.163L455.226 314.204L455.211 314.163ZM514.415 313.956L514.38 314.054L514.43 313.914L514.415 313.956ZM514.478 313.776L514.454 313.846L514.5 313.714L514.478 313.776ZM455.078 313.784L455.092 313.824L455.078 313.784ZM455.016 313.604L455.033 313.655L455.016 313.604ZM514.54 313.594L514.524 313.642L514.568 313.508L514.54 313.594ZM454.958 313.432L454.974 313.478L454.958 313.432ZM514.6 313.413L514.591 313.441L514.642 313.287L514.6 313.413ZM454.904 313.263L454.906 313.271L454.904 313.263ZM514.721 313.039C514.7 313.107 514.678 313.174 514.657 313.241L514.721 313.039ZM454.836 313.051L454.848 313.091L454.836 313.051ZM514.777 312.863L514.732 313.005L514.785 312.838L514.777 312.863ZM454.778 312.868L454.794 312.921L454.778 312.868ZM514.833 312.679L514.805 312.771L514.845 312.636L514.833 312.679ZM454.724 312.695L454.74 312.744L454.724 312.695ZM514.888 312.494L514.869 312.561L514.907 312.432L514.888 312.494ZM454.673 312.523L454.68 312.547L454.673 312.523ZM514.942 312.309L514.93 312.356L514.968 312.223L514.942 312.309ZM454.611 312.313L454.622 312.351L454.611 312.313ZM454.557 312.125L454.573 312.179L454.557 312.125ZM514.995 312.125L514.989 312.152L515.032 311.997L514.995 312.125ZM454.508 311.948L454.524 312.002L454.508 311.948ZM515.1 311.744C515.083 311.813 515.063 311.881 515.044 311.948L515.1 311.744ZM454.461 311.776L454.469 311.809L454.461 311.776ZM515.148 311.566L515.113 311.698L515.154 311.54L515.148 311.566ZM454.406 311.567L454.414 311.602L454.406 311.567ZM515.197 311.378L515.173 311.467L515.208 311.335L515.197 311.378ZM454.355 311.373L454.369 311.429L454.355 311.373ZM515.245 311.192L515.227 311.255L515.261 311.126L515.245 311.192ZM454.31 311.195L454.325 311.252L454.315 311.219L454.31 311.195ZM454.267 311.021L454.277 311.063L454.267 311.021ZM515.291 311.002L515.28 311.047L515.312 310.913L515.291 311.002ZM454.218 310.818L454.224 310.846L454.218 310.818ZM515.336 310.814L515.329 310.84L515.368 310.681L515.336 310.814ZM454.17 310.615L454.183 310.671L454.17 310.615ZM515.425 310.426C515.41 310.496 515.395 310.564 515.379 310.633L515.425 310.426ZM454.13 310.435L454.143 310.494L454.135 310.461L454.13 310.435ZM515.465 310.246L515.438 310.373L515.471 310.219L515.465 310.246ZM454.091 310.259L454.102 310.306L454.091 310.259ZM515.506 310.056L515.487 310.142L515.516 310.01L515.506 310.056ZM454.049 310.064L454.052 310.082L454.049 310.064ZM515.546 309.865L515.532 309.929L515.559 309.799L515.546 309.865ZM454.005 309.851L454.016 309.907L454.005 309.851ZM453.968 309.668L453.981 309.728L453.974 309.697L453.968 309.668ZM515.584 309.674L515.575 309.717L515.602 309.58L515.584 309.674ZM453.933 309.49L453.944 309.542L453.933 309.49ZM515.621 309.483L515.616 309.507L515.648 309.342L515.621 309.483ZM453.899 309.31V309.313V309.31ZM515.694 309.087C515.681 309.158 515.668 309.229 515.656 309.297L515.694 309.087ZM453.858 309.08L453.868 309.135L453.858 309.08ZM515.726 308.905L515.704 309.03L515.731 308.877L515.726 308.905ZM453.826 308.894L453.836 308.956L453.831 308.926L453.826 308.894ZM515.758 308.713L515.743 308.799L515.766 308.663L515.758 308.713ZM453.796 308.714L453.806 308.77L453.796 308.714ZM515.789 308.52L515.78 308.58L515.801 308.448L515.789 308.52ZM453.766 308.536L453.769 308.549L453.766 308.536ZM515.82 308.326L515.813 308.367L515.834 308.229L515.82 308.326ZM453.731 308.303L453.739 308.358L453.731 308.303ZM453.702 308.114L453.712 308.176L453.707 308.147L453.702 308.114ZM515.848 308.132L515.845 308.154L515.871 307.979L515.848 308.132ZM453.677 307.932L453.685 307.991L453.677 307.932ZM515.904 307.729C515.895 307.799 515.885 307.869 515.875 307.94L515.904 307.729ZM453.651 307.753L453.656 307.781L453.651 307.753ZM515.928 307.546L515.912 307.667L515.933 307.514L515.928 307.546ZM453.622 307.522L453.629 307.573L453.622 307.522ZM515.952 307.35L515.942 307.434L515.958 307.299L515.952 307.35ZM453.599 307.329L453.605 307.391L453.602 307.364L453.599 307.329ZM515.976 307.154L515.968 307.214L515.984 307.081L515.976 307.154ZM453.576 307.144L453.584 307.205L453.579 307.167L453.576 307.144ZM453.557 306.963L453.56 307.001L453.557 306.963ZM515.996 306.958L515.993 306.998L516.008 306.855L515.996 306.958ZM453.533 306.735L453.538 306.781L453.533 306.735ZM516.017 306.761L516.016 306.781L516.035 306.595L516.017 306.761ZM453.514 306.536L453.519 306.6L453.517 306.574L453.514 306.536ZM516.057 306.351C516.051 306.423 516.044 306.495 516.036 306.566L516.057 306.351ZM453.497 306.351L453.501 306.414L453.498 306.375L453.497 306.351ZM516.073 306.168L516.062 306.285L516.074 306.133L516.073 306.168ZM453.481 306.168L453.485 306.213L453.481 306.168ZM516.087 305.969L516.081 306.052L516.092 305.915L516.087 305.969ZM453.463 305.944L453.466 305.985L453.463 305.944ZM516.102 305.77L516.098 305.831L516.108 305.694L516.102 305.77ZM453.449 305.74L453.454 305.802L453.451 305.778L453.449 305.74ZM453.436 305.551L453.441 305.616L453.438 305.579L453.436 305.551ZM516.116 305.571L516.113 305.611L516.122 305.465L516.116 305.571ZM453.425 305.367L453.428 305.418L453.425 305.367ZM516.127 305.372V305.393L516.137 305.191L516.127 305.372ZM453.414 305.151L453.415 305.183L453.414 305.151ZM516.148 304.957C516.145 305.03 516.141 305.103 516.138 305.175L516.148 304.957ZM453.404 304.938L453.406 305V304.977L453.404 304.938ZM516.156 304.772L516.151 304.887L516.157 304.737L516.156 304.772ZM453.396 304.746L453.398 304.812V304.777L453.396 304.746ZM516.164 304.571L516.16 304.654L516.165 304.516L516.164 304.571ZM453.39 304.56L453.392 304.616L453.39 304.56ZM516.168 304.371L516.167 304.43L516.17 304.291L516.168 304.371ZM453.384 304.355L453.385 304.376L453.384 304.355ZM516.173 304.17L516.172 304.208L516.175 304.059L516.173 304.17ZM453.379 304.13L453.38 304.191L453.379 304.13ZM453.377 303.938V304.003V303.969V303.938ZM516.18 303.563L516.178 303.766C516.178 303.841 516.176 303.914 516.176 303.987L516.178 303.766L516.18 303.563ZM453.374 303.75L453.376 303.807L453.374 303.75Z" fill="#EE2661"/>
</g>
<g id="Group_55">
<path id="Vector_56" fill-rule="evenodd" clip-rule="evenodd" d="M509.211 306.406C509.211 307.975 507.938 309.248 506.369 309.248H463.026C461.457 309.248 460.184 307.975 460.184 306.406V303.563H509.211V306.406Z" fill="white"/>
</g>
</g>
<g id="Group_56">
<path id="Vector_57" fill-rule="evenodd" clip-rule="evenodd" d="M502.204 322.086C502.204 321.061 501.372 320.229 500.347 320.229H481.035C480.01 320.229 479.179 321.061 479.179 322.086C479.179 323.11 480.01 323.942 481.035 323.942H500.347C501.372 323.942 502.204 323.11 502.204 322.086Z" fill="#FB98B5"/>
</g>
<g id="Group_57">
<path id="Vector_58" fill-rule="evenodd" clip-rule="evenodd" d="M535.743 219.578C536.75 219.201 537.871 219.284 538.811 219.808C539.75 220.333 540.412 221.242 540.619 222.298C543.03 234.523 549.897 269.419 552.002 280.123C552.083 280.538 552.427 280.851 552.849 280.89C553.269 280.93 553.667 280.688 553.825 280.296C559.183 266.624 579.824 210.388 559.753 203.077C558.301 202.54 557.484 200.997 557.858 199.496C558.981 194.092 558.245 181.525 535.556 164.652C535.206 164.375 534.716 164.361 534.351 164.617C533.986 164.875 533.833 165.34 533.977 165.764C534.841 168.246 535.781 171.859 535.579 175.408C535.473 176.103 534.956 176.665 534.27 176.828C533.585 176.99 532.87 176.721 532.463 176.146C523.05 163.624 486.221 121.151 436.816 153.429C433.494 155.604 429.62 156.789 425.647 156.843C421.27 156.954 415.757 157.031 413.012 157.069C412.563 157.075 412.136 157.271 411.837 157.607C411.537 157.943 411.394 158.39 411.442 158.838C411.762 161.591 412.731 166.956 415.612 170.144C416.007 170.593 416.102 171.23 415.857 171.774C415.612 172.32 415.07 172.671 414.473 172.671C408.934 172.72 401.435 172.731 397.859 172.738C397.338 172.738 396.841 172.96 396.494 173.351C396.147 173.739 395.983 174.258 396.042 174.776C398.075 188.465 414.983 265.258 535.743 219.578Z" fill="#00121E"/>
</g>
</g>
<g id="Group_58">
<path id="Vector_59" fill-rule="evenodd" clip-rule="evenodd" d="M441.014 376.773C441.014 376.773 482.924 419.418 525.935 376.588C532.422 375.94 532.775 378.833 531.729 383.207C533.391 380.637 491.512 431.175 436.602 384.309C434.777 379.722 436.062 377.093 441.014 376.773Z" fill="#7D0500"/>
</g>
</g>
<g id="Laptop">
<g id="Group_59">
<path id="Vector_60" fill-rule="evenodd" clip-rule="evenodd" d="M648.273 437.049C648.273 433.108 646.707 429.329 643.921 426.543C641.135 423.758 637.357 422.193 633.417 422.193C578.357 422.193 386.45 422.193 334.523 422.193C331.067 422.193 327.748 423.566 325.303 426.011C322.858 428.456 321.483 431.774 321.483 435.233C321.483 471.372 321.483 572.695 321.483 611.482C321.483 615.559 323.103 619.468 325.986 622.35C328.869 625.233 332.779 626.853 336.855 626.853C391.368 626.853 575.196 626.853 631.645 626.853C636.054 626.853 640.285 625.101 643.403 621.983C646.521 618.865 648.273 614.637 648.273 610.227C648.273 571.205 648.273 474.247 648.273 437.049Z" fill="#263C51"/>
</g>
<path id="Vector_61" fill-rule="evenodd" clip-rule="evenodd" d="M456.007 546.715L357.439 609.585C355.216 611.001 352.406 611.112 350.08 609.874C347.754 608.636 346.277 606.242 346.213 603.609C346.221 603.397 346.219 603.184 346.219 602.971C346.219 566.224 346.219 489.977 346.219 455.611C346.219 445.963 354.04 438.143 363.685 438.143C415.418 438.143 567.637 438.143 622.383 438.143C622.429 438.143 622.474 438.143 622.519 438.145C623 438.147 623.421 438.467 623.553 438.927C623.685 439.389 623.5 439.882 623.095 440.14L517.294 507.623C511.209 495.933 498.982 487.945 484.905 487.945C464.762 487.945 448.411 504.296 448.411 524.436C448.411 532.821 451.244 540.549 456.007 546.715Z" fill="#6B7491"/>
<g id="Group_60">
<path id="Vector_62" d="M484.802 551.352C499.586 551.352 511.57 539.368 511.57 524.584C511.57 509.8 499.586 497.815 484.802 497.815C470.018 497.815 458.033 509.8 458.033 524.584C458.033 539.368 470.018 551.352 484.802 551.352Z" fill="#6B7491"/>
</g>
<g id="Group_61">
<path id="Vector_63" fill-rule="evenodd" clip-rule="evenodd" d="M648.272 631.001C648.272 628.704 646.406 626.839 644.108 626.839H325.648C323.35 626.839 321.483 628.704 321.483 631.001V639.33C321.483 641.628 323.35 643.494 325.648 643.494H644.108C646.406 643.494 648.272 641.628 648.272 639.33V631.001Z" fill="#8895B5"/>
</g>
<path id="Vector_64" fill-rule="evenodd" clip-rule="evenodd" d="M417.909 622.861C417.909 620.605 416.078 618.775 413.823 618.775H370.728C368.472 618.775 366.642 620.605 366.642 622.861V631.034C366.642 633.29 368.472 635.12 370.728 635.12H413.823C416.078 635.12 417.909 633.29 417.909 631.034V622.861Z" fill="#3F4553"/>
<g id="Group_62">
<path id="Vector_65" fill-rule="evenodd" clip-rule="evenodd" d="M615.745 622.861C615.745 620.605 613.914 618.775 611.659 618.775H568.563C566.308 618.775 564.478 620.605 564.478 622.861V631.034C564.478 633.29 566.308 635.12 568.563 635.12H611.659C613.914 635.12 615.745 633.29 615.745 631.034V622.861Z" fill="#3F4553"/>
</g>
</g>
</g>
</g>
</svg>
