<svg width="18" height="18" viewBox="0 0 18 18" fill="none" xmlns="http://www.w3.org/2000/svg">
<path d="M1 14L0.571254 13.7428C0.524629 13.8205 0.5 13.9094 0.5 14H1ZM1 17H0.5C0.5 17.2761 0.723858 17.5 1 17.5V17ZM17 17V17.5C17.2761 17.5 17.5 17.2761 17.5 17H17ZM17 14H17.5C17.5 13.94 17.4892 13.8806 17.4682 13.8244L17 14ZM5.09806 11.4903C5.36884 11.4361 5.54445 11.1727 5.49029 10.9019C5.43613 10.6312 5.17272 10.4556 4.90194 10.5097L5.09806 11.4903ZM0.5 14V17H1.5V14H0.5ZM1 17.5H17V16.5H1V17.5ZM17.5 17V14H16.5V17H17.5ZM17.4682 13.8244C16.8862 12.2725 14.3822 9.5 9 9.5V10.5C14.0178 10.5 16.1138 13.0608 16.5318 14.1756L17.4682 13.8244ZM9 9.5C7.49733 9.5 6.41315 8.98345 5.70391 8.24693C4.98875 7.50427 4.625 6.50708 4.625 5.5C4.625 4.49292 4.98875 3.49573 5.70391 2.75307C6.41315 2.01655 7.49733 1.5 9 1.5V0.5C7.25267 0.5 5.89935 1.10845 4.98359 2.05943C4.07375 3.00427 3.625 4.25708 3.625 5.5C3.625 6.74292 4.07375 7.99573 4.98359 8.94057C5.89935 9.89155 7.25267 10.5 9 10.5V9.5ZM9 1.5C10.5027 1.5 11.5868 2.01655 12.2961 2.75307C13.0112 3.49573 13.375 4.49292 13.375 5.5C13.375 6.50708 13.0112 7.50427 12.2961 8.24693C11.5868 8.98345 10.5027 9.5 9 9.5V10.5C10.7473 10.5 12.1007 9.89155 13.0164 8.94057C13.9263 7.99573 14.375 6.74292 14.375 5.5C14.375 4.25708 13.9263 3.00427 13.0164 2.05943C12.1007 1.10845 10.7473 0.5 9 0.5V1.5ZM1.42875 14.2572C1.65198 13.8852 2.11798 13.2761 2.76497 12.7153C3.41218 12.1544 4.21054 11.6678 5.09806 11.4903L4.90194 10.5097C3.78946 10.7322 2.83782 11.3289 2.11003 11.9597C1.38202 12.5906 0.848023 13.2815 0.571254 13.7428L1.42875 14.2572Z" fill="#F3F6FF"/>
</svg>
