<svg width="16" height="19" viewBox="0 0 16 19" fill="none" xmlns="http://www.w3.org/2000/svg">
<path d="M4.38477 13.8837L7.30601 16.8068L15.3436 8.7674H9.49924L4.38477 13.8837Z" fill="#39CEFD"/>
<path d="M9.49909 3.05176e-05H15.3434L2.92308 12.4222L0 9.49912L9.49909 3.05176e-05Z" fill="#39CEFD"/>
<path d="M7.30591 16.8068L9.49913 18.9982H15.3435L10.229 13.8838L7.30591 16.8068Z" fill="#03569B"/>
<path d="M11.6411 15.3051L10.229 13.8838L7.30591 16.8068L11.6411 15.3051Z" fill="url(#paint0_linear)"/>
<path d="M4.38428 13.8827L7.30743 10.9596L10.2308 13.8827L7.30743 16.8059L4.38428 13.8827Z" fill="#16B9FD"/>
<path d="M15.3434 8.76743L10.2289 13.8837L15.3434 19H9.49909L4.38279 13.8837L9.49909 8.76743H15.3434ZM9.49909 3.05176e-05L0 9.49912L2.92308 12.4222L15.3434 3.05176e-05H9.49909V3.05176e-05Z" fill="url(#paint1_radial)"/>
<defs>
<linearGradient id="paint0_linear" x1="8.15896" y1="17.3709" x2="10.336" y2="15.1939" gradientUnits="userSpaceOnUse">
<stop stop-color="#1A237E" stop-opacity="0.4"/>
<stop offset="1" stop-color="#1A237E" stop-opacity="0"/>
</linearGradient>
<radialGradient id="paint1_radial" cx="0" cy="0" r="1" gradientUnits="userSpaceOnUse" gradientTransform="translate(0.431049 1.29502) scale(23.2442)">
<stop stop-color="white" stop-opacity="0.1"/>
<stop offset="1" stop-color="white" stop-opacity="0"/>
</radialGradient>
</defs>
</svg>
