<svg width="45" height="45" viewBox="0 0 45 45" fill="none" xmlns="http://www.w3.org/2000/svg">
<g id="Github Icon">
<path id="Vector" d="M0 0V45H45V0H0ZM27.2513 36.7313C26.49 36.8775 26.25 36.4106 26.25 36.0112V31.8956C26.25 30.495 25.7587 29.5837 25.2188 29.1187C28.56 28.7475 32.07 27.4781 32.07 21.7181C32.07 20.0794 31.4869 18.7406 30.525 17.6925C30.6806 17.3137 31.1944 15.7875 30.3769 13.7231C30.3769 13.7231 29.1187 13.32 26.2556 15.2606C25.0575 14.9231 23.775 14.76 22.5 14.7525C21.225 14.7581 19.9425 14.9231 18.7444 15.2569C15.8794 13.3162 14.6194 13.7194 14.6194 13.7194C13.8056 15.7856 14.3194 17.31 14.475 17.6906C13.515 18.7406 12.93 20.0775 12.93 21.7162C12.93 27.4613 16.4306 28.7494 19.7644 29.13C19.335 29.505 18.9469 30.165 18.8119 31.1363C17.955 31.5188 15.7856 32.1806 14.4469 29.8875C14.4469 29.8875 13.6538 28.4475 12.1463 28.3406C12.1463 28.3406 10.6838 28.3219 12.0431 29.2537C12.0431 29.2537 13.0275 29.715 13.71 31.4475C13.71 31.4475 14.5781 34.125 18.75 33.2175V36.0094C18.75 36.405 18.5081 36.87 17.76 36.7313C11.7975 34.7494 7.5 29.1262 7.5 22.5C7.5 14.2144 14.2162 7.5 22.5 7.5C30.7838 7.5 37.5 14.2144 37.5 22.5C37.5 29.1244 33.2081 34.7456 27.2513 36.7313Z" fill="#F95353"/>
</g>
</svg>
