<svg width="45" height="45" viewBox="0 0 45 45" fill="none" xmlns="http://www.w3.org/2000/svg">
<g id="Instagram_icon">
<path id="Vector" d="M27.5006 22.5C27.5006 25.2619 25.2619 27.5006 22.5 27.5006C19.7381 27.5006 17.4994 25.2637 17.4994 22.5C17.4994 19.7381 19.7381 17.4994 22.5 17.4994C25.2619 17.4994 27.5006 19.7381 27.5006 22.5ZM34.7119 16.44C34.7831 18.0206 34.7981 18.495 34.7981 22.5C34.7981 26.505 34.7831 26.9794 34.7119 28.5619C34.5244 32.5931 32.6325 34.5262 28.5638 34.71C26.9813 34.7812 26.5069 34.7981 22.5 34.7981C18.495 34.7981 18.0187 34.7831 16.44 34.7119C12.3637 34.5263 10.4756 32.5894 10.2919 28.5638C10.2187 26.9794 10.2019 26.505 10.2019 22.5C10.2019 18.495 10.2187 18.0206 10.29 16.44C10.4756 12.405 12.3694 10.4756 16.4381 10.2919C18.0206 10.2187 18.495 10.2037 22.5 10.2037C26.505 10.2037 26.9812 10.2187 28.5619 10.29C32.6269 10.4756 34.5244 12.405 34.7119 16.44ZM30.2025 22.5C30.2025 18.2456 26.7525 14.7975 22.5 14.7975C18.2456 14.7975 14.7975 18.2456 14.7975 22.5C14.7975 26.7544 18.2475 30.2025 22.5 30.2025C26.7544 30.2025 30.2025 26.7544 30.2025 22.5ZM32.3062 14.4938C32.3062 13.5 31.5 12.6937 30.5063 12.6937C29.5125 12.6937 28.7063 13.5 28.7063 14.4938C28.7063 15.4875 29.5125 16.2937 30.5063 16.2937C31.5019 16.2937 32.3062 15.4875 32.3062 14.4938V14.4938ZM45 0V45H0V0H45ZM37.5 22.5C37.5 18.4275 37.4831 17.9156 37.41 16.3162C37.1644 10.875 34.1381 7.84125 28.6856 7.59187C27.0844 7.51687 26.5744 7.5 22.5 7.5C18.4256 7.5 17.9175 7.51687 16.3162 7.59C10.8675 7.83937 7.84125 10.8619 7.59 16.3144C7.51687 17.9156 7.5 18.4275 7.5 22.5C7.5 26.5744 7.51687 27.0844 7.59 28.6838C7.84125 34.1325 10.8637 37.1606 16.3162 37.41C17.9175 37.4831 18.4256 37.5 22.5 37.5C26.5744 37.5 27.0844 37.4831 28.6856 37.41C34.1269 37.1606 37.1644 34.1381 37.41 28.6838C37.4831 27.0844 37.5 26.5744 37.5 22.5V22.5Z" fill="#F95353"/>
</g>
</svg>
