<svg width="390" height="475" viewBox="0 0 390 475" fill="none" xmlns="http://www.w3.org/2000/svg">
<path d="M195 0.899993C222.9 1.19999 250.1 5.49999 276.4 14.7C291.9 20.2 305.4 29 317.8 39.7C328.7 49.1 338.8 59.3 346.3 71.7C355.1 86.2 361.8 101.6 365.3 118.3C367.7 129.8 368.4 141.5 368.7 153.2C368.8 155.8 368.7 158.5 368.7 161.1C368.7 162.7 368.3 163.5 366.4 163.3C359.1 162.8 351.7 162.5 344.4 162.2C336 161.8 327.5 161.5 319.1 161.2C305.7 160.6 292.4 160 279 159.5C270.5 159.2 261.9 159.3 253.4 159.1C217.2 158.3 181.1 158.6 144.9 158.9C134.4 159 123.9 159.1 113.3 159.4C96.2 159.9 79.1 160.7 62.1 161.4C52.7 161.8 43.3 162.2 33.9 162.7C30.4 162.9 26.9 163.1 23.4 163.3C22.1 163.4 21.4 163 21.4 161.5C20.1 125.1 28.3 91.5 50.4 62C58.7 51 69 42 79.8 33.4C95.4 21.1 113.1 13.4 132.3 8.79999C144 5.99999 155.8 3.69999 167.8 2.29999C176.8 1.39999 185.8 0.699993 195 0.899993ZM168.7 473.2C167.9 454.5 167.1 435.8 166.2 417C165.2 396.6 164.2 376.3 163.2 355.9C162.6 343.2 162.1 330.5 161.5 317.8C160.8 302.1 160 286.5 159.2 270.8C158.6 258 158.1 245.2 157.4 232.4C157.3 230.4 158.1 227.6 156.6 226.5C155.1 225.4 152.4 225.7 150.3 225.5C137.6 224.7 125 223.5 112.3 222.2C97.8 220.7 83.5 218.3 69.3 214.8C57.6 211.9 46 208.7 34.5 205.4C32.8 204.9 31.9 204.3 32 202.3C32.2 199.2 32 196.2 32.1 193.1C32.1 190.5 32.2 190.5 34.6 190.4C39.4 190.3 44.2 190 49.1 189.9C70.5 189.3 91.8 188.9 113.2 188.4C118.2 188.3 123.3 188.2 128.3 188.1C145.4 187.6 162.5 187.8 179.6 187.4C204.6 186.7 229.6 187.8 254.6 188C279.3 188.2 303.9 189.1 328.6 189.7C337.5 189.9 346.3 190.2 355.2 190.4C357.7 190.5 357.7 190.5 357.7 193C357.7 196.2 357.6 199.4 357.7 202.5C357.7 204.1 357.2 204.8 355.6 205.2C349.9 206.7 344.2 208.4 338.6 210C315.6 216.6 292.3 221.2 268.4 223.2C257.3 224.1 246.1 225 235 225.8C233.1 225.9 232.6 226.5 232.5 228.3C232.4 233.1 232.1 237.9 231.9 242.8C231.1 259.7 230.2 276.5 229.4 293.4C228.6 309.8 228 326.2 227.2 342.7C226.4 359.2 225.6 375.8 224.8 392.3C224 408.9 223.3 425.6 222.6 442.2C222.2 452.1 221.7 461.9 221.2 471.8C221.1 474.2 221.3 474.3 223.5 473.7C227.6 472.5 231.6 471.2 235.7 469.9C237.1 469.5 237.8 468.8 237.9 467.2C238.7 454.6 239.6 442.1 240.3 429.5C241 418.4 242 407.4 243.9 396.5C247.2 377.3 251.3 358.2 256.3 339.4C259.9 326 263.6 312.6 269.2 299.8C273.9 288.9 280.1 279 289.2 271.2C299 262.7 309.9 255.7 321.7 250.2C335.2 243.9 349.4 239.4 363.8 235.7C366.8 234.9 366.8 234.9 366.9 232.2C367.3 212.5 367.7 192.7 368 173C368.1 169.8 368 169.8 364.7 169.6C359.4 169.3 354.2 169.2 348.9 169C332.5 168.2 316.1 167.6 299.6 167C286.1 166.5 272.7 165.9 259.2 165.8C233.4 165.6 207.7 165.1 181.9 165.3C152 165.6 122.1 165.6 92.2 166.9C83.7 167.3 75.1 167.7 66.6 168.1C57.7 168.4 48.8 168.5 40 169.1C34.7 169.4 29.5 169.4 24.2 169.7C21.3 169.9 21.3 169.9 21.3 172.7C21.4 179.7 21.6 186.7 21.7 193.7C21.9 206.3 22.2 218.9 22.4 231.5C22.5 234.8 22.5 234.8 25.6 235.7C30.4 237 35.3 238.3 40.1 239.8C58 245.3 75.1 252.4 90.4 263.5C99.4 270 107.5 277.2 113.4 286.7C118.5 294.9 122.2 303.8 125.3 313C131.9 332.7 136.8 352.7 141.1 373C144.7 390.3 147.9 407.6 148.9 425.3C149.7 439.2 150.7 453.1 151.6 467C151.7 468.7 152.2 469.5 153.8 470C158 471.2 162.2 472.6 166.3 473.9C166.9 474.1 167.5 474.3 168.2 473.9C168.6 473.6 168.7 473.4 168.7 473.2ZM141.1 463.7C140.7 459.2 140.4 454.7 140 450.3C138.8 432.9 137.4 415.6 134.7 398.4C132.4 383.9 129.9 369.5 125.6 355.4C122.8 346.3 119.7 337.3 114.4 329.2C110.2 322.7 104.9 317.1 98 313.4C91 309.7 84 309.5 77.1 313.7C74.3 315.4 71.7 317.5 69.4 319.8C64.1 325.1 60.4 331.3 57.3 338C52.9 347.7 49.2 357.6 45.9 367.7C39.4 387 35.9 407.1 30.9 426.9C30.3 429.1 30.4 429.2 32.9 430C42.3 433.1 51.8 436.3 61.2 439.4C86.5 447.8 111.8 456.2 137.2 464.5C138.4 464.9 139.6 465.7 140.9 465.3C141.3 464.8 141.2 464.2 141.1 463.7ZM252.8 464.5C265.8 460.2 278.7 455.9 291.7 451.6C313.4 444.4 335.1 437.3 356.8 430.1C359.7 429.1 359.7 429.1 359 426.1C357.5 419.7 356 413.3 354.5 406.9C350.8 390.9 347.1 374.9 341.4 359.5C337.7 349.7 334.1 339.8 328.9 330.6C324.9 323.7 319.7 317.8 312.8 313.6C306 309.5 299.1 309.7 292.2 313.3C287 316 282.6 319.8 279 324.5C273.7 331.3 269.9 338.9 267.1 347.1C261.8 362.6 258.3 378.5 255.9 394.7C254.4 404.7 252.9 414.6 252 424.7C251.1 435.2 250.3 445.7 249.5 456.1C249.3 459.1 249.1 462.2 249 465.3C250.4 465.6 251.6 464.9 252.8 464.5ZM12.3 179.5C8.7 187.1 5.20001 194.8 1.60001 202.4C0.800006 204.1 0.5 205.9 0.5 207.8C0.9 227.8 1.3 247.9 1.7 267.9C2 284.8 2.3 301.6 2.7 318.5C3.1 338.5 3.49999 358.6 3.89999 378.6C4.09999 390.2 4.40001 401.8 4.60001 413.4C4.60001 415.6 5.5 416.7 7.3 417.7C11.1 419.6 14.9 421.7 18.7 423.6C19.5 424 20.3 424.8 21.7 424.5C19.2 342 16.8 259.4 14.3 176.4C13 177.5 12.8 178.6 12.3 179.5ZM383.4 417.4C384.9 416.7 385.4 415.7 385.4 414.1C385.8 393.6 386.3 373.1 386.7 352.6C387.2 326.2 387.7 299.8 388.2 273.4C388.6 251.5 389.1 229.6 389.6 207.7C389.6 206 389.5 204.5 388.8 202.9C384.9 194.7 381.1 186.5 377.2 178.2C376.9 177.6 377 176.6 375.8 176.8C373.3 259.4 370.9 342 368.4 425.3C373.7 422.4 378.5 419.9 383.4 417.4Z" fill="black"/>
</svg>
