<svg width="24" height="24" viewBox="0 0 24 24" fill="none" xmlns="http://www.w3.org/2000/svg">
<path d="M12 1.85001C11.73 1.85001 11.45 1.92001 11.22 2.05001L3.78 6.35001C3.3 6.63001 3 7.15001 3 7.71001V16.29C3 16.85 3.3 17.37 3.78 17.65L5.73 18.77C6.68 19.23 7 19.24 7.44 19.24C8.84 19.24 9.65 18.39 9.65 16.91V8.44001C9.65 8.32001 9.55 8.22001 9.43 8.22001H8.5C8.37 8.22001 8.27 8.32001 8.27 8.44001V16.91C8.27 17.57 7.59 18.22 6.5 17.67L4.45 16.5C4.38 16.45 4.34 16.37 4.34 16.29V7.71001C4.34 7.62001 4.38 7.54001 4.45 7.50001L11.89 3.21001C11.95 3.17001 12.05 3.17001 12.11 3.21001L19.55 7.50001C19.62 7.54001 19.66 7.62001 19.66 7.71001V16.29C19.66 16.37 19.62 16.45 19.55 16.5L12.11 20.79C12.05 20.83 11.95 20.83 11.88 20.79L10 19.65C9.92 19.62 9.84 19.61 9.79 19.64C9.26 19.94 9.16 20 8.67 20.15C8.55 20.19 8.36 20.26 8.74 20.47L11.22 21.94C11.46 22.08 11.72 22.15 12 22.15C12.28 22.15 12.54 22.08 12.78 21.94L20.22 17.65C20.7 17.37 21 16.85 21 16.29V7.71001C21 7.15001 20.7 6.63001 20.22 6.35001L12.78 2.05001C12.55 1.92001 12.28 1.85001 12 1.85001ZM14 8.00001C11.88 8.00001 10.61 8.89001 10.61 10.39C10.61 12 11.87 12.47 13.91 12.67C16.34 12.91 16.53 13.27 16.53 13.75C16.53 14.58 15.86 14.93 14.3 14.93C12.32 14.93 11.9 14.44 11.75 13.46C11.73 13.36 11.64 13.28 11.53 13.28H10.57C10.45 13.28 10.36 13.37 10.36 13.5C10.36 14.74 11.04 16.24 14.3 16.24C16.65 16.24 18 15.31 18 13.69C18 12.08 16.92 11.66 14.63 11.35C12.32 11.05 12.09 10.89 12.09 10.35C12.09 9.90001 12.29 9.30001 14 9.30001C15.5 9.30001 16.09 9.63001 16.32 10.66C16.34 10.76 16.43 10.83 16.53 10.83H17.5C17.55 10.83 17.61 10.81 17.65 10.76C17.69 10.72 17.72 10.66 17.7 10.6C17.56 8.82001 16.38 8.00001 14 8.00001Z" fill="#68A063"/>
</svg>
