<svg width="100%" height="100%" viewBox="0 0 227 151" version="1.1" xmlns="http://www.w3.org/2000/svg" xmlns:xlink="http://www.w3.org/1999/xlink" xml:space="preserve" xmlns:serif="http://www.serif.com/" style="fill-rule:evenodd;clip-rule:evenodd;stroke-linecap:round;stroke-linejoin:round;stroke-miterlimit:1.5;">
    <g transform="matrix(1,0,0,1,-1407.14,-1150.31)">
        <g transform="matrix(1,0,0,1,13.8001,9.3283)">
            <g transform="matrix(1,0,0,1,267.775,0)">
                <g>
                    <g transform="matrix(1,0,0,1,-13.8001,-9.3283)">
                        <path d="M1143.37,1296.87L1247.64,1171.15C1247.64,1171.15 1258.65,1154.31 1289.09,1154.31C1319.53,1154.31 1329.25,1187.99 1329.25,1187.99L1329.25,1296.87" style="fill:none;stroke:rgb(255,255,255);stroke-width:8px;"/>
                    </g>
                    <g transform="matrix(1,0,0,1,-239.709,-46.6344)">
                        <path d="M1421.63,1273.48L1514.37,1273.48L1514.37,1334.17L1514.37,1309.02" style="fill:none;stroke:rgb(255,255,255);stroke-width:8px;"/>
                    </g>
                </g>
                <g transform="matrix(1,0,0,1,-13.8001,-9.3283)">
                    <path d="M1329.25,1187.99L1361.87,1205.82L1329.25,1221.73" style="fill:none;stroke:rgb(255,255,255);stroke-width:8px;"/>
                </g>
                <g transform="matrix(1,0,0,1,-13.1272,-9.15444)">
                    <circle cx="1287.79" cy="1195.4" r="4.709" style="fill:rgb(255,255,255);stroke:rgb(255,255,255);stroke-width:8px;"/>
                </g>
            </g>
        </g>
    </g>
</svg>
