<svg width="18" height="18" viewBox="0 0 18 18" fill="none" xmlns="http://www.w3.org/2000/svg">
<path d="M17.9303 10.7786C17.8224 10.4616 17.5397 10.2408 17.1741 10.1879C17.0017 10.1629 16.8042 10.1735 16.5706 10.2202C16.1633 10.3017 15.8612 10.3327 15.6407 10.3387C16.473 8.97613 17.1497 7.42226 17.5393 5.95956C18.1693 3.5944 17.8327 2.51692 17.4393 2.02956C16.3982 0.739559 14.8792 0.0465592 13.0467 0.0253547C12.0692 0.0137638 11.211 0.200923 10.7633 0.335514C10.3465 0.264196 9.89834 0.224377 9.42809 0.217014C8.54658 0.203377 7.76773 0.389718 7.10222 0.772696C6.73378 0.651877 6.14246 0.481559 5.45958 0.372877C3.8535 0.117196 2.55905 0.316423 1.61222 0.965037C0.465705 1.75035 -0.0657872 3.11481 0.0325097 5.02049C0.0637284 5.62554 0.41276 7.46645 0.962322 9.21231C1.27817 10.2158 1.61496 11.0491 1.96336 11.6894C2.45745 12.5972 2.98613 13.1318 3.57963 13.3238C3.91228 13.4313 4.51669 13.5065 5.15238 12.9931C5.23296 13.0878 5.34047 13.1818 5.48314 13.2691C5.66433 13.3799 5.88589 13.4705 6.10716 13.5241C6.90457 13.7174 7.6515 13.6691 8.28874 13.3981C8.29268 13.508 8.29571 13.613 8.29824 13.7037C8.30246 13.8508 8.30667 13.995 8.31223 14.1299C8.34999 15.0417 8.41397 15.7507 8.60353 16.2468C8.61394 16.2741 8.62793 16.3157 8.6427 16.3598C8.73727 16.6406 8.8954 17.1106 9.29773 17.4787C9.71433 17.8601 10.2183 17.977 10.6798 17.977C10.9113 17.977 11.1321 17.9476 11.3258 17.9073C12.0163 17.7638 12.8005 17.5452 13.3678 16.7619C13.9041 16.0215 14.1648 14.9062 14.212 13.149C14.2181 13.0993 14.2238 13.0518 14.2292 13.0066L14.2404 12.9138L14.3668 12.9245L14.3993 12.9267C15.1026 12.9577 15.9625 12.8131 16.4906 12.5752C16.9079 12.3875 18.2452 11.7029 17.9303 10.7786" fill="black"/>
<path d="M16.7279 10.9583C14.6368 11.3766 14.493 10.6901 14.493 10.6901C16.7008 7.51329 17.6238 3.48081 16.8274 2.49388C14.6545 -0.198282 10.8931 1.07495 10.8303 1.10795L10.8101 1.11149C10.397 1.02831 9.93465 0.978809 9.41497 0.970559C8.46885 0.955559 7.7511 1.2111 7.20646 1.6116C7.20646 1.6116 0.496539 -1.0689 0.808656 4.98279C0.875031 6.2702 2.71159 14.7241 4.90211 12.1706C5.70276 11.2369 6.47641 10.4474 6.47641 10.4474C6.86059 10.6949 7.32058 10.8212 7.80278 10.7759L7.84026 10.745C7.82858 10.8609 7.83393 10.9743 7.85523 11.1086C7.29091 11.72 7.45677 11.8273 6.32868 12.0525C5.18716 12.2806 5.85773 12.6867 6.29556 12.7929C6.82635 12.9216 8.05429 13.1039 8.88398 11.9776L8.85093 12.1061C9.07199 12.2779 9.22724 13.2232 9.20123 14.0801C9.17521 14.9371 9.15784 15.5254 9.33201 15.9849C9.50631 16.4445 9.67991 17.4785 11.1629 17.1704C12.4021 16.9128 13.0442 16.2455 13.1336 15.1324C13.1969 14.3411 13.3405 14.4581 13.3495 13.7506L13.4646 13.4156C13.5972 12.3429 13.4856 11.9969 14.249 12.1578L14.4347 12.1736C14.9965 12.1984 15.7319 12.086 16.1636 11.8914C17.093 11.4732 17.6442 10.7748 16.7278 10.9583H16.7279" fill="#336791"/>
<path d="M7.59919 5.55854C7.41075 5.5331 7.2401 5.55663 7.15376 5.62004C7.10524 5.65569 7.0902 5.69701 7.08612 5.72544C7.07529 5.80079 7.12971 5.8841 7.16318 5.92706C7.25782 6.04869 7.39606 6.13229 7.53288 6.15069C7.55271 6.15342 7.57247 6.15465 7.59209 6.15465C7.82025 6.15465 8.02774 5.98235 8.04602 5.85519C8.06888 5.69592 7.83045 5.58976 7.59919 5.5586" fill="white"/>
<path d="M13.8416 5.56357C13.8236 5.43873 13.5946 5.40314 13.3772 5.43246C13.16 5.46178 12.9495 5.55682 12.9671 5.68194C12.9812 5.77923 13.1624 5.94532 13.3768 5.94532C13.3949 5.94532 13.4132 5.94416 13.4316 5.94164C13.5748 5.92241 13.6799 5.83425 13.7298 5.78346C13.8057 5.706 13.8497 5.61969 13.8416 5.56357" fill="white"/>
<path d="M17.4237 10.9108C17.344 10.677 17.0873 10.6018 16.6609 10.6872C15.395 10.9405 14.9416 10.765 14.7927 10.6587C15.7768 9.20511 16.5863 7.44792 17.023 5.80849C17.2298 5.0319 17.3441 4.31067 17.3535 3.72281C17.3638 3.07761 17.2504 2.60347 17.0167 2.31383C16.0744 1.14622 14.6914 0.519902 13.0172 0.50272C11.8663 0.490175 10.8938 0.775788 10.7053 0.856106C10.3084 0.760379 9.87558 0.701606 9.40441 0.694106C8.54041 0.680538 7.79356 0.881129 7.17523 1.29002C6.90663 1.19306 6.21251 0.961993 5.36363 0.829379C3.89606 0.600288 2.72986 0.773879 1.89764 1.34558C0.904618 2.02781 0.44618 3.24731 0.534985 4.97013C0.564868 5.54974 0.905461 7.33283 1.44293 9.04045C2.15041 11.288 2.91949 12.5603 3.72865 12.8221C3.82336 12.8527 3.93256 12.8741 4.053 12.8741C4.34817 12.8741 4.71007 12.7451 5.08659 12.3062C5.54585 11.7719 6.02091 11.2507 6.5112 10.743C6.82929 10.9086 7.17874 11.001 7.53614 11.0103C7.53684 11.0194 7.53776 11.0284 7.5386 11.0374C7.47708 11.1086 7.41684 11.1807 7.3579 11.2539C7.11026 11.5587 7.05872 11.6222 6.26159 11.7814C6.03483 11.8268 5.4326 11.9471 5.42374 12.3565C5.41418 12.8037 6.13566 12.9916 6.21785 13.0115C6.50431 13.081 6.78028 13.1153 7.04346 13.1153C7.68352 13.1153 8.24679 12.9113 8.69693 12.5166C8.68308 14.1111 8.75163 15.6823 8.94907 16.161C9.11079 16.5529 9.50581 17.5107 10.7536 17.5106C10.9367 17.5106 11.1382 17.4899 11.3599 17.4439C12.6621 17.1732 13.2277 16.615 13.4464 15.3846C13.5635 14.7269 13.7644 13.1567 13.8589 12.3143C14.0583 12.3747 14.315 12.4023 14.5925 12.4022C15.1713 12.4022 15.8392 12.283 16.2581 12.0944C16.7286 11.8825 17.5777 11.3626 17.4237 10.9108V10.9108ZM14.3225 5.21899C14.3182 5.46765 14.2829 5.6934 14.2455 5.92904C14.2052 6.18247 14.1636 6.44449 14.1531 6.76256C14.1428 7.07211 14.1826 7.39392 14.2212 7.70517C14.2991 8.33381 14.379 8.98099 14.0696 9.61958C14.0182 9.53126 13.9724 9.43998 13.9325 9.34624C13.894 9.25583 13.8105 9.11061 13.6948 8.90961C13.2449 8.12715 12.1913 6.29483 12.7306 5.54715C12.8913 5.32461 13.299 5.09579 14.3225 5.21899V5.21899ZM13.0819 1.00624C14.5819 1.03836 15.7685 1.58252 16.6086 2.62352C17.253 3.42199 16.5435 7.0552 14.4894 10.1896C14.4688 10.1641 14.448 10.1387 14.4271 10.1134L14.4011 10.0819C14.9319 9.2319 14.8281 8.39088 14.7357 7.64524C14.6978 7.33924 14.6619 7.05022 14.671 6.77872C14.6805 6.49099 14.7197 6.24417 14.7577 6.00554C14.8043 5.71147 14.8517 5.40717 14.8387 5.04847C14.8484 5.01083 14.8524 4.96638 14.8472 4.91361C14.8138 4.56963 14.4088 3.54015 13.5834 2.60838C13.1318 2.09872 12.4733 1.52838 11.5743 1.1437C11.961 1.06597 12.4898 0.993493 13.0819 1.00624V1.00624ZM4.68813 11.9849C4.27329 12.4686 3.98684 12.3758 3.89262 12.3454C3.27879 12.1469 2.56652 10.8888 1.93856 8.89379C1.39519 7.16756 1.07766 5.43172 1.05248 4.94497C0.973172 3.40556 1.35799 2.33272 2.19633 1.75617C3.56067 0.817993 5.80378 1.37954 6.70512 1.66433C6.69218 1.67674 6.67868 1.68833 6.66588 1.70095C5.18679 3.1494 5.22188 5.62413 5.22553 5.77542C5.22539 5.83379 5.23045 5.91642 5.23734 6.03008C5.2628 6.44633 5.31019 7.22102 5.18363 8.09831C5.06606 8.91356 5.32524 9.71149 5.89456 10.2876C5.95298 10.3466 6.01439 10.4027 6.07856 10.4558C5.82516 10.719 5.2744 11.301 4.68813 11.9849V11.9849ZM6.26869 9.9399C5.80983 9.47558 5.60142 8.82977 5.69684 8.16786C5.83043 7.24113 5.78114 6.43399 5.75463 6.00036C5.75091 5.93967 5.7476 5.88649 5.7457 5.84456C5.96177 5.65877 6.96309 5.13854 7.67719 5.2972C8.00302 5.36954 8.20158 5.58472 8.28413 5.95481C8.71134 7.87092 8.34066 8.66954 8.04281 9.31133C7.98143 9.44354 7.92342 9.56852 7.87392 9.69779L7.83553 9.79774C7.73836 10.0504 7.64794 10.2854 7.5919 10.5085C7.10407 10.5071 6.62953 10.305 6.26869 9.93983V9.9399ZM6.34357 12.524C6.20112 12.4895 6.07301 12.4296 5.99784 12.3799C6.06063 12.3512 6.17236 12.3122 6.36614 12.2735C7.3039 12.0863 7.44874 11.9542 7.76501 11.5648C7.8375 11.4755 7.9197 11.3743 8.03353 11.251L8.03367 11.2509C8.2032 11.0668 8.28075 11.098 8.42138 11.1546C8.53535 11.2003 8.64638 11.3389 8.69138 11.4913C8.71268 11.5633 8.73659 11.6999 8.65833 11.8063C7.99767 12.7033 7.03495 12.6918 6.34357 12.524V12.524ZM11.2513 16.9525C10.1041 17.1909 9.6979 16.6233 9.43022 15.9744C9.25746 15.5555 9.17252 13.6664 9.23278 11.5803C9.23356 11.5525 9.22948 11.5257 9.2216 11.5005C9.21456 11.4507 9.20384 11.4014 9.18954 11.3531C9.09996 11.0496 8.88164 10.7957 8.61973 10.6904C8.51566 10.6486 8.3247 10.5719 8.0952 10.6288C8.14413 10.4333 8.229 10.2124 8.32104 9.97331L8.35964 9.87274C8.40309 9.75936 8.45766 9.64188 8.51531 9.51752C8.82701 8.84606 9.25388 7.92636 8.79059 5.84865C8.61706 5.07042 8.03754 4.69038 7.15906 4.77867C6.63241 4.83152 6.15056 5.03756 5.91023 5.15572C5.85856 5.18108 5.81131 5.20563 5.76715 5.22949C5.83423 4.4454 6.08763 2.98004 7.03559 2.0529C7.63247 1.46927 8.42735 1.18099 9.39584 1.19654C11.3041 1.22681 12.5278 2.17645 13.2184 2.96783C13.8136 3.64972 14.1358 4.33665 14.2644 4.70715C13.2973 4.61177 12.6395 4.79688 12.3061 5.25915C11.5807 6.2647 12.7029 8.21633 13.2423 9.15431C13.3412 9.3262 13.4266 9.47477 13.4534 9.5379C13.6291 9.95068 13.8565 10.2263 14.0225 10.4274C14.0734 10.489 14.1227 10.5488 14.1603 10.6011C13.8674 10.6829 13.3412 10.8722 13.3892 11.8179C13.3505 12.2924 13.0755 14.5142 12.9358 15.2992C12.7514 16.3362 12.3578 16.7225 11.2513 16.9526V16.9525ZM16.0399 11.6387C15.7403 11.7735 15.2391 11.8746 14.7629 11.8964C14.237 11.9202 13.9692 11.8392 13.9062 11.7894C13.8767 11.2 14.1029 11.1385 14.3423 11.0733C14.3799 11.0631 14.4166 11.053 14.4521 11.041C14.4741 11.0584 14.4982 11.0757 14.5246 11.0926C14.9474 11.3631 15.7013 11.3923 16.7658 11.1792L16.7775 11.177C16.6339 11.3072 16.3882 11.4818 16.0399 11.6387Z" fill="white"/>
</svg>
