<svg width="157" height="196" viewBox="0 0 157 196" fill="none" xmlns="http://www.w3.org/2000/svg">
<path d="M88.208 68.75H141.604L88.208 15.125V68.75ZM20.2497 0.5H97.9163L156.166 59V176C156.166 181.172 154.121 186.132 150.479 189.789C146.838 193.446 141.899 195.5 136.75 195.5H20.2497C9.47342 195.5 0.833008 186.725 0.833008 176V20C0.833008 9.1775 9.47342 0.5 20.2497 0.5ZM97.9163 176V166.25C97.9163 153.282 71.9951 146.75 59.083 146.75C46.1709 146.75 20.2497 153.282 20.2497 166.25V176H97.9163ZM59.083 98C53.9334 98 48.9947 100.054 45.3533 103.711C41.712 107.368 39.6663 112.328 39.6663 117.5C39.6663 122.672 41.712 127.632 45.3533 131.289C48.9947 134.946 53.9334 137 59.083 137C64.2326 137 69.1713 134.946 72.8127 131.289C76.454 127.632 78.4997 122.672 78.4997 117.5C78.4997 112.328 76.454 107.368 72.8127 103.711C69.1713 100.054 64.2326 98 59.083 98Z" fill="#1D182F"/>
</svg>
