<svg width="22" height="22" viewBox="0 0 22 22" fill="none" xmlns="http://www.w3.org/2000/svg">
<path d="M11 6.5C10.7239 6.5 10.5 6.72386 10.5 7C10.5 7.27614 10.7239 7.5 11 7.5V6.5ZM9.22361 7.94721C9.4706 7.82372 9.57071 7.52338 9.44721 7.27639C9.32372 7.0294 9.02338 6.92929 8.77639 7.05279L9.22361 7.94721ZM11 7.5C11.6763 7.5 12.5623 7.68298 13.2655 8.20222C13.9439 8.70318 14.5 9.55047 14.5 11H15.5C15.5 9.24953 14.8061 8.09682 13.8595 7.39778C12.9377 6.71702 11.8237 6.5 11 6.5V7.5ZM14.5 11C14.5 12.437 13.9124 13.2869 13.2078 13.7942C12.4778 14.3199 11.5867 14.5 11 14.5V15.5C11.7467 15.5 12.8556 15.2801 13.7922 14.6058C14.7542 13.9131 15.5 12.763 15.5 11H14.5ZM11 14.5C10.4133 14.5 9.52223 14.3199 8.79215 13.7942C8.08757 13.2869 7.5 12.437 7.5 11H6.5C6.5 12.763 7.24577 13.9131 8.20785 14.6058C9.14443 15.2801 10.2533 15.5 11 15.5V14.5ZM7.5 11C7.5 10.347 7.50724 8.8054 9.22361 7.94721L8.77639 7.05279C6.49276 8.1946 6.5 10.3196 6.5 11H7.5Z" fill="#F3F6FF"/>
<path d="M1.5 8L3.5 10V12L1 14L3.5 18L6.5 17L8 18L8.5 21H13.5L14 18L15.5 17L18.5 18L21 14L18.5 12V10L20.5 8L18 4L15.5 5L14 4L13.5 1H8.5L8 4L6.5 5L3.5 4L1.5 8Z" stroke="#F3F6FF" stroke-linecap="round" stroke-linejoin="round"/>
</svg>
